<svg width="342" height="341" viewBox="0 0 342 341" fill="none" xmlns="http://www.w3.org/2000/svg">
<g clip-path="url(#clip0_551_11143)">
<path d="M146.227 219.41L145.599 223.25L144.931 227.376L138.793 265.002H128.761L134.892 227.376L135.567 223.25L136.195 219.41H146.227Z" fill="#EBEBEB"/>
<path d="M144.776 219.41C144.244 223.223 143.678 227.028 143.105 230.827L141.332 242.237L139.477 253.626L138.522 259.314L137.526 265.002L138.345 259.287L139.197 253.578L140.991 242.175L142.846 230.786C143.453 226.987 144.094 223.195 144.776 219.41Z" fill="#C7C7C7"/>
<path d="M145.599 223.25L144.931 227.376H134.892L135.567 223.25H145.599Z" fill="#C7C7C7"/>
<path d="M195.768 219.41L196.395 223.25L197.063 227.376L203.201 265.002H213.234L207.102 227.376L206.427 223.25L205.8 219.41H195.768Z" fill="#EBEBEB"/>
<path d="M197.256 219.41C197.781 223.223 198.354 227.028 198.927 230.827L200.693 242.237L202.548 253.626L203.51 259.314L204.506 265.002L203.687 259.287L202.835 253.578L201.061 242.175L199.206 230.786C198.572 226.987 197.931 223.195 197.256 219.41Z" fill="#C7C7C7"/>
<path d="M196.395 223.25H206.427L207.102 227.376H197.063L196.395 223.25Z" fill="#C7C7C7"/>
<path d="M145.857 208.826H137.905L138.894 201.406H144.868L145.857 208.826Z" fill="#C7C7C7"/>
<path d="M149.187 197.408C149.899 193.376 147.207 189.53 143.176 188.818C139.144 188.107 135.298 190.798 134.586 194.83C133.875 198.862 136.566 202.708 140.598 203.419C144.63 204.131 148.476 201.439 149.187 197.408Z" fill="#DBDBDB"/>
<path d="M147.371 197.409C148.089 194.378 146.214 191.339 143.183 190.621C140.152 189.903 137.112 191.778 136.394 194.809C135.676 197.84 137.551 200.879 140.582 201.597C143.613 202.315 146.652 200.441 147.371 197.409Z" fill="white"/>
<path d="M146.597 195.78C146.544 195.108 146.354 194.454 146.037 193.859C145.72 193.264 145.284 192.741 144.755 192.322C144.223 191.909 143.613 191.608 142.961 191.438C142.309 191.268 141.629 191.232 140.963 191.333C140.302 191.437 139.67 191.679 139.109 192.044C138.547 192.408 138.068 192.886 137.703 193.447C137.318 194.048 137.066 194.723 136.964 195.429C136.862 196.135 136.911 196.854 137.11 197.539C137.449 198.723 138.24 199.725 139.313 200.329C140.359 200.923 141.587 201.112 142.764 200.861C143.902 200.617 144.922 199.992 145.656 199.088C146.379 198.194 146.798 197.092 146.849 195.943C146.849 195.896 146.849 195.848 146.801 195.848C146.754 195.848 146.754 195.889 146.754 195.943C146.728 196.408 146.638 196.867 146.488 197.307C146.33 197.74 146.122 198.152 145.867 198.535C145.598 198.906 145.287 199.245 144.939 199.544C144.582 199.843 144.191 200.097 143.773 200.301C143.173 200.584 142.52 200.739 141.857 200.755C141.193 200.772 140.534 200.65 139.92 200.397C139.304 200.136 138.753 199.745 138.303 199.251C137.853 198.756 137.516 198.17 137.315 197.533C137.108 196.878 137.044 196.186 137.129 195.505C137.214 194.823 137.445 194.168 137.806 193.584C138.155 193.03 138.618 192.556 139.165 192.196C139.712 191.837 140.33 191.598 140.977 191.497C141.851 191.358 142.747 191.458 143.569 191.785C144.391 192.113 145.11 192.657 145.649 193.359C145.908 193.721 146.119 194.115 146.276 194.532C146.428 194.955 146.529 195.394 146.576 195.841C146.576 195.841 146.597 195.8 146.597 195.78Z" fill="#EBEBEB"/>
<path d="M145.934 195.785C145.886 195.209 145.719 194.65 145.444 194.142C145.17 193.634 144.793 193.188 144.338 192.832C143.882 192.481 143.361 192.224 142.805 192.077C142.249 191.929 141.669 191.894 141.099 191.972C140.529 192.057 139.984 192.261 139.498 192.572C139.013 192.882 138.599 193.291 138.282 193.773C137.946 194.287 137.723 194.866 137.629 195.473C137.535 196.08 137.572 196.7 137.737 197.292C137.877 197.804 138.119 198.283 138.447 198.701C138.775 199.119 139.182 199.468 139.646 199.727C140.557 200.248 141.63 200.408 142.654 200.177C143.641 199.964 144.525 199.417 145.157 198.629C145.782 197.852 146.143 196.896 146.187 195.901C146.187 195.86 146.187 195.819 146.146 195.819C146.105 195.819 146.091 195.853 146.091 195.901C146.035 196.7 145.767 197.47 145.314 198.13C144.86 198.791 144.239 199.319 143.513 199.658C142.997 199.91 142.433 200.048 141.859 200.064C141.286 200.081 140.715 199.975 140.185 199.754C139.652 199.528 139.175 199.189 138.786 198.761C138.397 198.332 138.107 197.824 137.934 197.271C137.757 196.704 137.706 196.106 137.784 195.517C137.862 194.928 138.067 194.363 138.385 193.861C138.685 193.388 139.084 192.986 139.555 192.682C140.026 192.378 140.558 192.18 141.113 192.102C141.855 191.991 142.613 192.08 143.311 192.358C144.008 192.636 144.619 193.093 145.082 193.684C145.304 193.992 145.488 194.326 145.627 194.68C145.755 195.042 145.844 195.417 145.893 195.798L145.934 195.785Z" fill="#EBEBEB"/>
<path d="M145.273 195.794C145.224 195.314 145.078 194.85 144.843 194.429C144.609 194.008 144.291 193.639 143.909 193.345C143.142 192.762 142.178 192.503 141.222 192.622C140.744 192.685 140.284 192.849 139.874 193.103C139.463 193.357 139.112 193.695 138.842 194.095C138.55 194.527 138.354 195.017 138.268 195.531C138.183 196.046 138.208 196.572 138.344 197.076C138.459 197.515 138.661 197.926 138.939 198.284C139.216 198.643 139.564 198.942 139.96 199.163C140.742 199.6 141.658 199.731 142.531 199.531C143.373 199.335 144.12 198.853 144.646 198.167C145.165 197.508 145.47 196.706 145.518 195.869C145.518 195.828 145.518 195.794 145.471 195.794C145.463 195.794 145.455 195.797 145.448 195.801C145.441 195.805 145.434 195.81 145.429 195.816C145.424 195.823 145.42 195.83 145.418 195.838C145.416 195.846 145.415 195.854 145.416 195.862C145.363 196.533 145.135 197.178 144.754 197.734C144.374 198.289 143.854 198.735 143.247 199.026C142.813 199.241 142.337 199.361 141.853 199.377C141.368 199.394 140.886 199.307 140.438 199.122C139.985 198.935 139.579 198.649 139.25 198.286C138.921 197.922 138.677 197.49 138.535 197.021C138.394 196.543 138.357 196.041 138.428 195.548C138.498 195.055 138.674 194.583 138.944 194.164C139.201 193.774 139.54 193.444 139.937 193.196C140.333 192.949 140.779 192.791 141.242 192.731C141.855 192.659 142.477 192.732 143.056 192.943C143.64 193.164 144.152 193.542 144.536 194.034C144.726 194.285 144.882 194.56 145 194.852C145.115 195.152 145.195 195.463 145.239 195.78C145.239 195.78 145.28 195.8 145.273 195.794Z" fill="#EBEBEB"/>
<path d="M144.618 195.799C144.518 195.03 144.118 194.332 143.506 193.855C142.894 193.398 142.132 193.188 141.372 193.269C140.985 193.314 140.612 193.44 140.277 193.639C139.942 193.837 139.653 194.104 139.428 194.422C139.184 194.772 139.017 195.17 138.94 195.59C138.862 196.01 138.875 196.442 138.978 196.856C139.068 197.221 139.233 197.563 139.462 197.861C139.691 198.159 139.979 198.407 140.308 198.589C140.956 198.947 141.715 199.052 142.436 198.882C143.121 198.716 143.73 198.321 144.161 197.763C144.572 197.218 144.809 196.563 144.843 195.881C144.844 195.874 144.844 195.867 144.842 195.86C144.84 195.853 144.837 195.846 144.832 195.84C144.828 195.835 144.822 195.83 144.816 195.826C144.81 195.823 144.803 195.82 144.795 195.82C144.795 195.82 144.748 195.82 144.741 195.874C144.7 196.415 144.522 196.935 144.224 197.388C143.925 197.84 143.516 198.209 143.036 198.459C142.685 198.642 142.298 198.747 141.902 198.766C141.506 198.785 141.111 198.717 140.744 198.568C140.372 198.415 140.04 198.179 139.772 197.879C139.504 197.579 139.307 197.223 139.196 196.836C139.087 196.448 139.063 196.041 139.127 195.643C139.191 195.245 139.34 194.865 139.564 194.531C139.775 194.223 140.05 193.964 140.371 193.772C140.691 193.58 141.049 193.46 141.42 193.419C141.905 193.375 142.393 193.438 142.852 193.603C143.312 193.773 143.719 194.063 144.032 194.442C144.181 194.643 144.307 194.86 144.407 195.09C144.504 195.329 144.574 195.579 144.618 195.833V195.799Z" fill="#EBEBEB"/>
<path d="M203.917 208.826H195.958L196.947 201.406H202.928L203.917 208.826Z" fill="#C7C7C7"/>
<path d="M207.39 196.76C208.004 192.706 205.216 188.923 201.163 188.309C197.109 187.694 193.326 190.482 192.712 194.536C192.097 198.589 194.885 202.373 198.939 202.987C202.992 203.601 206.776 200.813 207.39 196.76Z" fill="#DBDBDB"/>
<path d="M205.508 196.955C205.978 193.875 203.862 190.998 200.783 190.529C197.704 190.059 194.827 192.175 194.357 195.254C193.887 198.334 196.003 201.211 199.083 201.68C202.162 202.15 205.039 200.034 205.508 196.955Z" fill="white"/>
<path d="M204.655 195.779C204.601 195.108 204.41 194.454 204.093 193.859C203.776 193.264 203.341 192.741 202.813 192.322C202.281 191.909 201.67 191.608 201.019 191.438C200.367 191.269 199.687 191.233 199.021 191.333C198.36 191.437 197.728 191.679 197.166 192.043C196.605 192.407 196.126 192.886 195.761 193.447C195.373 194.046 195.119 194.722 195.017 195.428C194.915 196.134 194.966 196.854 195.168 197.539C195.504 198.724 196.296 199.727 197.371 200.328C198.417 200.923 199.645 201.112 200.822 200.86C201.96 200.617 202.98 199.991 203.713 199.087C204.437 198.194 204.856 197.092 204.907 195.943C204.907 195.895 204.907 195.848 204.859 195.848C204.811 195.848 204.811 195.889 204.805 195.943C204.778 196.407 204.691 196.866 204.545 197.307C204.389 197.741 204.178 198.154 203.918 198.535C203.385 199.295 202.663 199.903 201.824 200.301C201.226 200.586 200.574 200.742 199.911 200.758C199.249 200.774 198.59 200.651 197.978 200.397C197.361 200.136 196.809 199.745 196.358 199.251C195.907 198.756 195.568 198.17 195.366 197.532C195.16 196.877 195.098 196.185 195.184 195.503C195.269 194.822 195.501 194.167 195.864 193.583C196.212 193.029 196.676 192.556 197.223 192.196C197.77 191.836 198.388 191.598 199.035 191.496C199.909 191.358 200.805 191.457 201.627 191.785C202.449 192.113 203.168 192.656 203.707 193.358C203.963 193.722 204.174 194.116 204.334 194.531C204.484 194.955 204.582 195.394 204.627 195.841C204.627 195.841 204.655 195.8 204.655 195.779Z" fill="#EBEBEB"/>
<path d="M203.993 195.785C203.941 195.21 203.773 194.652 203.498 194.144C203.224 193.636 202.849 193.19 202.397 192.832C201.941 192.481 201.42 192.224 200.863 192.077C200.307 191.929 199.727 191.894 199.157 191.972C198.587 192.056 198.04 192.26 197.553 192.57C197.067 192.881 196.651 193.29 196.334 193.773C195.998 194.287 195.775 194.866 195.681 195.473C195.587 196.08 195.623 196.7 195.788 197.292C195.929 197.804 196.171 198.283 196.498 198.701C196.826 199.119 197.234 199.468 197.698 199.727C198.609 200.246 199.682 200.407 200.706 200.177C201.696 199.965 202.582 199.418 203.215 198.629C203.838 197.851 204.198 196.896 204.245 195.901C204.245 195.86 204.245 195.819 204.197 195.819C204.15 195.819 204.15 195.853 204.143 195.901C204.089 196.699 203.821 197.469 203.369 198.13C202.917 198.79 202.297 199.318 201.572 199.658C201.056 199.91 200.492 200.048 199.918 200.064C199.344 200.081 198.773 199.975 198.244 199.754C197.709 199.53 197.23 199.191 196.84 198.762C196.45 198.334 196.159 197.825 195.986 197.271C195.812 196.704 195.761 196.106 195.839 195.517C195.917 194.929 196.12 194.364 196.436 193.861C196.738 193.389 197.138 192.988 197.609 192.684C198.079 192.381 198.61 192.182 199.164 192.102C199.909 191.988 200.67 192.075 201.37 192.353C202.07 192.631 202.684 193.09 203.147 193.684C203.372 193.99 203.556 194.325 203.693 194.68C203.827 195.04 203.916 195.416 203.959 195.798C203.965 195.798 203.971 195.797 203.977 195.795C203.983 195.792 203.988 195.789 203.993 195.785Z" fill="#EBEBEB"/>
<path d="M203.331 195.793C203.279 195.314 203.132 194.851 202.897 194.431C202.663 194.01 202.347 193.641 201.967 193.345C201.2 192.763 200.236 192.504 199.28 192.622C198.804 192.687 198.347 192.852 197.94 193.105C197.532 193.359 197.182 193.696 196.914 194.095C196.622 194.527 196.427 195.017 196.339 195.531C196.252 196.044 196.276 196.571 196.409 197.075C196.527 197.514 196.731 197.924 197.01 198.282C197.289 198.641 197.636 198.94 198.032 199.162C198.812 199.599 199.726 199.73 200.596 199.53C201.44 199.335 202.189 198.853 202.717 198.166C203.239 197.509 203.541 196.706 203.584 195.868C203.584 195.827 203.584 195.793 203.543 195.793C203.535 195.794 203.527 195.796 203.52 195.8C203.513 195.804 203.506 195.809 203.501 195.816C203.496 195.822 203.492 195.829 203.49 195.837C203.488 195.845 203.487 195.853 203.488 195.861C203.434 196.532 203.205 197.177 202.825 197.732C202.444 198.287 201.925 198.733 201.319 199.026C200.885 199.24 200.409 199.36 199.925 199.377C199.44 199.393 198.958 199.306 198.51 199.121C198.057 198.934 197.651 198.648 197.322 198.285C196.993 197.922 196.748 197.49 196.607 197.021C196.465 196.543 196.429 196.04 196.5 195.547C196.57 195.054 196.746 194.582 197.016 194.163C197.271 193.773 197.608 193.442 198.004 193.195C198.4 192.948 198.845 192.789 199.307 192.731C199.923 192.658 200.546 192.73 201.128 192.942C201.712 193.164 202.224 193.541 202.608 194.033C202.798 194.285 202.954 194.56 203.072 194.852C203.18 195.153 203.26 195.463 203.311 195.779C203.316 195.786 203.323 195.791 203.331 195.793Z" fill="#EBEBEB"/>
<path d="M202.669 195.799C202.622 195.418 202.5 195.05 202.31 194.717C202.121 194.383 201.867 194.09 201.564 193.855C200.952 193.398 200.189 193.188 199.429 193.269C199.042 193.311 198.668 193.435 198.333 193.634C197.997 193.833 197.709 194.101 197.486 194.421C197.241 194.772 197.075 195.17 196.997 195.59C196.92 196.01 196.933 196.442 197.036 196.856C197.126 197.221 197.291 197.563 197.52 197.861C197.748 198.159 198.036 198.407 198.365 198.588C199.011 198.947 199.768 199.051 200.486 198.882C201.173 198.714 201.784 198.32 202.219 197.763C202.629 197.218 202.867 196.562 202.901 195.881C202.903 195.874 202.903 195.867 202.902 195.86C202.901 195.853 202.899 195.846 202.895 195.84C202.891 195.835 202.886 195.83 202.88 195.826C202.874 195.822 202.867 195.82 202.86 195.819C202.845 195.819 202.832 195.825 202.821 195.835C202.811 195.846 202.805 195.859 202.805 195.874C202.756 196.417 202.567 196.938 202.258 197.387C201.948 197.836 201.529 198.198 201.039 198.438C200.689 198.621 200.303 198.725 199.909 198.744C199.514 198.763 199.12 198.696 198.754 198.547C198.382 198.394 198.05 198.159 197.782 197.859C197.513 197.559 197.317 197.202 197.206 196.815C197.097 196.427 197.073 196.02 197.137 195.622C197.2 195.224 197.35 194.845 197.574 194.51C197.785 194.202 198.06 193.943 198.38 193.751C198.7 193.559 199.058 193.439 199.429 193.398C199.912 193.354 200.399 193.417 200.855 193.582C201.316 193.751 201.724 194.041 202.035 194.421C202.189 194.62 202.317 194.838 202.417 195.069C202.513 195.309 202.584 195.558 202.628 195.813C202.628 195.813 202.676 195.806 202.669 195.799Z" fill="#EBEBEB"/>
<path d="M220.988 205.049H121V224.172H220.988V205.049Z" fill="#DBDBDB"/>
<path d="M141.556 205.049L134.3 224.172H121.383L128.639 205.049H141.556Z" fill="#EBEBEB"/>
<path d="M168.023 205.049L160.767 224.172H147.85L155.106 205.049H168.023Z" fill="#EBEBEB"/>
<path d="M194.486 205.049L187.236 224.172H174.319L181.576 205.049H194.486Z" fill="#EBEBEB"/>
<path d="M220.962 205.049L213.705 224.172H200.788L208.045 205.049H220.962Z" fill="#EBEBEB"/>
<path d="M218.97 241.855H123.026V253.961H218.97V241.855Z" fill="#DBDBDB"/>
<path d="M142.743 241.855L135.786 253.954H123.395L130.358 241.855H142.743Z" fill="#EBEBEB"/>
<path d="M168.147 241.855L161.184 253.954H148.785L155.748 241.855H168.147Z" fill="#EBEBEB"/>
<path d="M193.539 241.855L186.576 253.954H174.184L181.147 241.855H193.539Z" fill="#EBEBEB"/>
<path d="M218.935 241.855L211.972 253.954H199.58L206.543 241.855H218.935Z" fill="#EBEBEB"/>
<path d="M319.538 113.968H242.35C242.35 113.968 250.002 93.0645 261.78 93.0645C273.558 93.0645 277.248 107.489 277.248 107.489C277.248 107.489 285.193 99.6526 291.726 99.6526C298.26 99.6526 303.927 110.012 303.927 110.012C303.927 110.012 313.155 104.44 319.538 113.968Z" fill="#EBEBEB"/>
<path d="M112.667 64.9376H76.5957C76.5957 64.9376 84.6501 53.2617 91.0064 53.2617C97.3626 53.2617 99.2313 61.0433 99.2313 61.0433C99.2313 61.0433 103.712 57.4151 107.865 58.063C112.019 58.7109 112.667 64.9376 112.667 64.9376Z" fill="#EBEBEB"/>
<path d="M307.247 149.022H271.176C271.176 149.022 279.237 137.346 285.586 137.346C291.936 137.346 293.811 145.127 293.811 145.127C293.811 145.127 298.292 141.492 302.445 142.147C306.599 142.802 307.247 149.022 307.247 149.022Z" fill="#EBEBEB"/>
<path d="M92.7245 94.2037H22.458C22.458 94.2037 32.081 72.7207 42.3724 71.3771C52.6638 70.0336 57.5878 87.3359 57.5878 87.3359C57.5878 87.3359 64.2305 81.1979 69.4478 81.1979C74.6651 81.1979 78.6957 89.2523 78.6957 89.2523C78.6957 89.2523 89.1576 83.7554 92.7245 94.2037Z" fill="#EBEBEB"/>
<path d="M24.9912 265.177L61.1508 265.013L97.3173 264.952L169.637 264.836L241.963 264.952L278.122 265.013L314.282 265.177L278.122 265.341L241.963 265.402L169.637 265.518L97.3173 265.402L61.1508 265.341L24.9912 265.177Z" fill="#263238"/>
<path d="M171 318.922C250.132 318.922 314.281 311.444 314.281 302.22C314.281 292.995 250.132 285.518 171 285.518C91.868 285.518 27.7188 292.995 27.7188 302.22C27.7188 311.444 91.868 318.922 171 318.922Z" fill="#EBEBEB"/>
<path d="M189.735 305.336C191.153 305.814 231.76 305.957 233.315 304.982C233.908 304.613 234.269 298.7 234.508 291.546C234.563 289.998 234.604 288.402 234.645 286.772L237.932 265.119L210.788 264.941L208.224 286.609L208.326 291.383C208.326 291.383 192.756 298.284 191.167 299.532C189.578 300.781 188.323 304.852 189.735 305.336Z" fill="#EB9481"/>
<path d="M189.735 305.336C191.153 305.814 231.76 305.957 233.315 304.981C234.031 304.531 234.426 295.897 234.645 286.779L208.224 286.615L208.326 291.389C208.326 291.389 192.756 298.291 191.167 299.539C189.578 300.787 188.323 304.852 189.735 305.336Z" fill="white"/>
<path d="M189.735 305.337C191.153 305.815 231.76 305.958 233.315 304.983C233.908 304.615 234.269 298.702 234.508 291.547L208.326 291.377C208.326 291.377 192.756 298.279 191.167 299.527C189.578 300.775 188.323 304.853 189.735 305.337Z" fill="#3D9963"/>
<path d="M190.329 303.714C197.149 303.57 224.606 303.632 231.344 304.007C231.399 304.007 231.399 304.048 231.344 304.055C224.599 304.341 197.128 304.055 190.322 303.823C190.179 303.816 190.185 303.714 190.329 303.714Z" fill="#263238"/>
<path d="M193.787 298.074C194.548 298.053 195.306 298.191 196.011 298.48C196.715 298.769 197.352 299.202 197.879 299.752C198.832 300.727 199.374 302.031 199.393 303.394C199.393 303.435 199.311 303.435 199.304 303.394C199.082 302.05 198.43 300.814 197.446 299.871C196.463 298.928 195.201 298.329 193.848 298.163C193.837 298.171 193.822 298.174 193.808 298.172C193.794 298.169 193.781 298.161 193.773 298.149C193.765 298.138 193.762 298.123 193.765 298.109C193.767 298.095 193.775 298.083 193.787 298.074Z" fill="#263238"/>
<path d="M205.688 292.043C208.416 292.043 211.567 292.991 213.252 295.221C213.32 295.31 213.197 295.399 213.115 295.358C210.727 294.101 208.212 293.102 205.613 292.377C205.569 292.367 205.53 292.34 205.506 292.302C205.482 292.264 205.474 292.217 205.484 292.173C205.494 292.128 205.521 292.09 205.559 292.066C205.597 292.041 205.644 292.033 205.688 292.043Z" fill="#263238"/>
<path d="M203.58 292.856C206.308 292.856 209.459 293.804 211.143 296.041C211.212 296.122 211.089 296.218 211.007 296.17C208.621 294.912 206.105 293.915 203.505 293.197C203.467 293.181 203.435 293.152 203.416 293.115C203.396 293.078 203.391 293.035 203.4 292.995C203.409 292.954 203.432 292.918 203.465 292.892C203.498 292.867 203.538 292.854 203.58 292.856Z" fill="#263238"/>
<path d="M201.473 293.674C204.201 293.64 207.352 294.615 209.044 296.852C209.105 296.934 208.982 297.03 208.9 296.989C206.516 295.725 204 294.726 201.398 294.008C201.354 293.998 201.316 293.971 201.291 293.933C201.267 293.894 201.259 293.848 201.269 293.804C201.279 293.759 201.306 293.721 201.344 293.696C201.383 293.672 201.429 293.664 201.473 293.674Z" fill="#263238"/>
<path d="M199.366 294.487C202.094 294.487 205.252 295.428 206.936 297.665C206.998 297.747 206.875 297.842 206.793 297.801C204.408 296.538 201.893 295.538 199.291 294.821C199.247 294.811 199.208 294.784 199.184 294.745C199.16 294.707 199.151 294.66 199.161 294.616C199.171 294.572 199.198 294.533 199.237 294.509C199.275 294.485 199.322 294.477 199.366 294.487Z" fill="#263238"/>
<path d="M229.653 297.535C232.716 297.535 232.688 302.309 229.653 302.309C226.619 302.309 226.571 297.515 229.653 297.535Z" fill="#263238"/>
<path d="M202.974 288.757C204.434 290.66 206.671 291.867 208.608 293.211C208.653 293.237 208.704 293.251 208.756 293.254C208.808 293.256 208.86 293.247 208.908 293.225C208.956 293.204 208.998 293.172 209.031 293.132C209.064 293.091 209.087 293.044 209.099 292.993C209.109 292.995 209.12 292.994 209.131 292.992C209.141 292.989 209.151 292.983 209.159 292.976C209.167 292.969 209.173 292.96 209.177 292.949C209.181 292.939 209.182 292.928 209.181 292.918C208.991 290.417 208.147 288.011 206.732 285.941C205.886 284.747 204.154 283.629 202.77 284.768C201.385 285.907 202.115 287.652 202.974 288.757ZM202.852 286.5C203.138 283.54 205.805 285.818 206.391 286.725C206.761 287.316 207.091 287.932 207.38 288.566C207.954 289.888 208.462 291.238 208.901 292.611C207.994 291.888 207.025 291.247 206.091 290.565C204.979 289.753 202.702 288.137 202.852 286.5Z" fill="#263238"/>
<path d="M218.864 291.211C218.659 289.431 216.627 289.042 215.194 289.308C212.741 289.822 210.465 290.97 208.593 292.636C208.583 292.642 208.575 292.651 208.569 292.661C208.563 292.671 208.56 292.683 208.56 292.694C208.56 292.706 208.563 292.717 208.569 292.727C208.575 292.738 208.583 292.746 208.593 292.752C208.564 292.796 208.546 292.846 208.541 292.899C208.535 292.951 208.543 293.004 208.562 293.053C208.582 293.101 208.612 293.145 208.652 293.179C208.692 293.214 208.739 293.238 208.79 293.25C211.123 293.618 213.564 294.307 215.945 293.932C217.336 293.741 219.061 292.895 218.864 291.211ZM212.446 293.086C211.293 292.936 210.161 292.725 209.036 292.616C210.325 291.968 211.58 291.252 212.93 290.754C213.579 290.496 214.244 290.282 214.922 290.113C215.972 289.874 219.477 290.072 217.65 292.404C216.579 293.687 213.817 293.257 212.446 293.086Z" fill="#263238"/>
<path d="M277.831 165.002C277.831 165.002 246.302 218.634 245.456 222.399C244.16 228.189 237.272 285.327 237.272 285.327L204.468 284.741C204.468 284.741 210.122 234.355 215.475 217.761C219.335 205.806 247.154 166.155 247.154 166.155L277.831 165.002Z" fill="#37474F"/>
<path d="M207.462 279.707C212.174 279.673 228.87 279.489 235.137 280.068C235.15 280.068 235.162 280.073 235.171 280.082C235.18 280.091 235.185 280.104 235.185 280.116C235.185 280.129 235.18 280.141 235.171 280.15C235.162 280.159 235.15 280.164 235.137 280.164C232.982 280.471 212.174 279.987 207.462 279.837C207.451 279.84 207.44 279.841 207.43 279.839C207.419 279.838 207.409 279.833 207.4 279.827C207.392 279.821 207.384 279.812 207.38 279.803C207.375 279.793 207.372 279.783 207.372 279.772C207.372 279.761 207.375 279.75 207.38 279.741C207.384 279.731 207.392 279.723 207.4 279.717C207.409 279.71 207.419 279.706 207.43 279.704C207.44 279.703 207.451 279.704 207.462 279.707Z" fill="#263238"/>
<path d="M272.45 169.925C270.404 173.165 268.201 176.336 266.087 179.548C263.973 182.761 261.872 185.98 259.792 189.219C255.641 195.684 251.585 202.209 247.625 208.793C245.705 211.823 244.06 215.018 242.708 218.341C241.477 221.68 240.552 225.125 239.946 228.632C239.298 232.158 238.875 235.711 238.48 239.264C238.052 243.047 237.629 246.83 237.211 250.613C236.347 258.342 235.483 266.085 234.619 273.842C234.51 274.79 234.408 275.744 234.312 276.692C234.312 276.836 234.544 276.863 234.565 276.692C235.526 268.999 236.331 261.286 237.211 253.579L238.52 242.108C238.923 238.541 239.312 234.974 239.884 231.421C240.396 227.927 241.169 224.475 242.196 221.096C243.321 217.594 244.833 214.229 246.704 211.064C250.503 204.51 254.527 198.065 258.551 191.64C262.575 185.216 266.701 178.682 270.95 172.319C271.468 171.535 272 170.751 272.545 169.98C272.62 169.919 272.491 169.864 272.45 169.925Z" fill="#263238"/>
<path d="M249.955 309.846C251.449 309.942 291.741 299.323 292.996 297.986C293.051 297.905 293.084 297.811 293.092 297.714C293.249 296.39 291.189 291.446 289.743 285.11C289.654 284.708 288.897 282.785 287.834 280.186C284.908 273.059 279.69 260.811 279.69 260.811L253.386 267.562L263.07 287.033L264.38 291.61C264.38 291.61 251.074 302.256 249.86 303.886C248.646 305.516 248.469 309.737 249.955 309.846Z" fill="#EB9481"/>
<path d="M249.958 309.846C251.451 309.941 291.744 299.322 292.999 297.986C293.054 297.905 293.087 297.811 293.094 297.713C293.251 296.39 291.192 291.445 289.746 285.11C289.657 284.707 288.9 282.784 287.836 280.186L263.079 287.006L264.389 291.582C264.389 291.582 251.083 302.228 249.869 303.858C248.655 305.488 248.471 309.737 249.958 309.846Z" fill="white"/>
<path d="M249.958 309.837C251.451 309.946 291.744 299.32 292.999 297.984C293.476 297.479 292.433 292.03 289.746 285.107L264.389 291.614C264.389 291.614 251.083 302.246 249.869 303.89C248.655 305.533 248.471 309.734 249.958 309.837Z" fill="#3D9963"/>
<path d="M250.114 308.12C256.661 306.251 283.245 299.322 289.861 297.965C289.915 297.965 289.922 297.965 289.861 298.013C283.416 300.004 256.777 306.722 250.134 308.243C250.005 308.263 249.977 308.161 250.114 308.12Z" fill="#263238"/>
<path d="M252.029 301.79C252.756 301.58 253.52 301.524 254.27 301.625C255.02 301.726 255.741 301.982 256.387 302.377C257.555 303.079 258.409 304.201 258.774 305.514C258.774 305.555 258.706 305.575 258.692 305.514C258.131 304.266 257.18 303.235 255.982 302.574C254.784 301.914 253.404 301.66 252.05 301.852C252.045 301.858 252.039 301.863 252.032 301.866C252.025 301.869 252.018 301.87 252.01 301.869C252.002 301.868 251.995 301.865 251.989 301.86C251.984 301.855 251.979 301.849 251.977 301.842C251.974 301.834 251.974 301.827 251.976 301.819C251.978 301.812 251.981 301.805 251.987 301.8C251.992 301.794 251.999 301.79 252.007 301.789C252.014 301.787 252.022 301.788 252.029 301.79Z" fill="#263238"/>
<path d="M262.002 292.93C264.627 292.207 267.928 292.343 270.124 294.076C270.213 294.144 270.124 294.267 270.029 294.246C267.41 293.631 264.733 293.3 262.043 293.257C262.005 293.252 261.971 293.235 261.944 293.208C261.917 293.182 261.901 293.147 261.896 293.109C261.891 293.072 261.899 293.034 261.918 293.002C261.937 292.969 261.967 292.944 262.002 292.93Z" fill="#263238"/>
<path d="M260.174 294.254C262.799 293.531 266.1 293.668 268.296 295.4C268.385 295.468 268.296 295.591 268.194 295.57C265.574 294.968 262.896 294.65 260.208 294.622C260.159 294.627 260.11 294.612 260.073 294.581C260.035 294.549 260.011 294.504 260.007 294.455C260.002 294.406 260.017 294.358 260.049 294.32C260.08 294.282 260.125 294.259 260.174 294.254Z" fill="#263238"/>
<path d="M258.34 295.576C260.972 294.853 264.267 294.99 266.469 296.722C266.551 296.79 266.469 296.906 266.367 296.893C263.748 296.279 261.071 295.95 258.381 295.911C258.34 295.909 258.302 295.893 258.272 295.866C258.242 295.838 258.223 295.801 258.218 295.761C258.213 295.721 258.223 295.68 258.245 295.646C258.267 295.612 258.301 295.588 258.34 295.576Z" fill="#263238"/>
<path d="M256.513 296.894C259.138 296.178 262.439 296.314 264.635 298.046C264.724 298.114 264.635 298.23 264.54 298.21C261.92 297.603 259.243 297.276 256.554 297.235C256.508 297.24 256.463 297.227 256.427 297.199C256.391 297.171 256.368 297.13 256.363 297.085C256.357 297.039 256.37 296.994 256.398 296.958C256.426 296.922 256.467 296.899 256.513 296.894Z" fill="#263238"/>
<path d="M286.559 292.146C289.519 291.382 290.705 295.985 287.739 296.742C284.772 297.499 283.592 292.903 286.559 292.146Z" fill="#263238"/>
<path d="M258.536 290.442C260.439 291.908 262.908 292.488 265.118 293.313C265.168 293.327 265.221 293.329 265.273 293.318C265.324 293.308 265.373 293.285 265.414 293.253C265.455 293.22 265.488 293.178 265.51 293.131C265.532 293.083 265.542 293.031 265.541 292.979C265.552 292.978 265.563 292.975 265.573 292.97C265.582 292.965 265.591 292.957 265.597 292.947C265.603 292.938 265.606 292.927 265.607 292.916C265.608 292.905 265.606 292.893 265.602 292.883C264.782 290.509 263.352 288.392 261.455 286.745C260.337 285.811 258.373 285.163 257.322 286.622C256.272 288.082 257.432 289.589 258.536 290.442ZM257.854 288.293C257.377 285.354 260.535 286.888 261.333 287.611C261.842 288.087 262.319 288.597 262.758 289.139C263.653 290.267 264.489 291.442 265.261 292.658C264.197 292.194 263.099 291.826 262.021 291.396C260.726 290.892 258.114 289.91 257.848 288.293H257.854Z" fill="#263238"/>
<path d="M274.529 288.772C273.882 287.101 271.801 287.244 270.499 287.871C268.255 288.989 266.344 290.678 264.961 292.768C264.954 292.777 264.949 292.787 264.947 292.799C264.944 292.81 264.945 292.821 264.948 292.832C264.952 292.843 264.958 292.853 264.966 292.861C264.974 292.869 264.984 292.874 264.995 292.877C264.98 292.927 264.977 292.98 264.986 293.031C264.995 293.082 265.016 293.131 265.047 293.173C265.079 293.214 265.119 293.248 265.166 293.272C265.212 293.295 265.264 293.307 265.316 293.307C267.669 293.068 270.206 293.109 272.408 292.161C273.697 291.609 275.15 290.347 274.529 288.772ZM268.801 292.223C267.655 292.366 266.502 292.455 265.391 292.639C266.441 291.654 267.54 290.723 268.685 289.849C269.246 289.436 269.834 289.06 270.444 288.724C271.399 288.219 274.843 287.524 273.643 290.245C272.954 291.752 270.178 292.052 268.801 292.223Z" fill="#263238"/>
<path d="M261.272 285.757L290.748 278.023C290.748 278.023 262.527 222.488 262.786 218.655C262.991 215.245 283.457 185.455 284.61 179.877C286.458 170.745 282.012 162.588 277.701 157.541L247.216 166.134C247.216 166.134 249.644 171.406 254.104 174.734C254.104 174.734 234.947 206.72 234.456 217.25C233.965 227.78 261.272 285.757 261.272 285.757Z" fill="#37474F"/>
<path d="M260.713 280.3C264.983 279.079 263.742 279.372 268.031 278.193C270.132 277.62 283.929 273.848 285.975 273.65C286.022 273.65 286.043 273.719 285.975 273.739C284.092 274.585 270.234 278.117 268.127 278.649C263.817 279.741 265.037 279.379 260.713 280.429C260.666 280.436 260.632 280.3 260.713 280.3Z" fill="#263238"/>
<path d="M249.379 173.527C252.299 174.611 255.122 175.943 257.815 177.51C257.837 177.521 257.853 177.54 257.861 177.563C257.868 177.586 257.867 177.611 257.856 177.633C257.845 177.654 257.826 177.671 257.803 177.678C257.78 177.686 257.755 177.684 257.733 177.673C254.889 176.432 251.984 175.246 249.215 173.854C249.177 173.83 249.149 173.792 249.137 173.748C249.125 173.704 249.13 173.658 249.15 173.617C249.171 173.577 249.205 173.545 249.247 173.529C249.289 173.512 249.336 173.511 249.379 173.527Z" fill="#263238"/>
<path d="M252.957 172.776C253.174 173.312 253.356 173.861 253.503 174.42C253.663 174.856 253.735 175.32 253.714 175.784C253.705 175.799 253.693 175.812 253.677 175.821C253.661 175.83 253.644 175.835 253.626 175.835C253.608 175.835 253.59 175.83 253.575 175.821C253.559 175.812 253.546 175.799 253.537 175.784C253.281 175.376 253.088 174.932 252.964 174.467C252.78 173.956 252.582 173.451 252.419 172.94C252.303 172.612 252.841 172.449 252.957 172.776Z" fill="#263238"/>
<path d="M252.957 170.016C252.834 169.546 252.711 169.082 252.581 168.611C252.452 168.141 252.274 167.657 252.179 167.165C252.179 167.09 252.043 167.125 252.063 167.165C252.179 167.636 252.234 168.127 252.315 168.604C252.397 169.082 252.493 169.559 252.588 170.03C252.768 170.923 252.996 171.807 253.27 172.676C252.79 172.641 252.324 172.499 251.906 172.26C251.499 171.924 251.208 171.468 251.074 170.957C250.883 170.425 250.713 169.887 250.515 169.362C250.27 168.786 250.073 168.19 249.928 167.581C249.928 167.5 249.792 167.534 249.806 167.581C250.041 168.867 250.404 170.126 250.89 171.339C251.101 171.817 251.258 172.308 251.729 172.54C252.246 172.759 252.804 172.868 253.366 172.86C253.427 172.86 253.523 172.86 253.509 172.772C253.366 171.899 253.188 170.937 252.957 170.016Z" fill="#263238"/>
<path d="M253.462 175.797C252.303 177.89 250.98 179.889 249.739 181.935C248.497 183.981 247.379 185.972 246.247 188.018C243.969 192.151 241.855 196.393 239.925 200.703C238.97 202.836 238.06 204.993 237.197 207.175C236.298 209.347 235.557 211.581 234.98 213.859C234.438 216.133 234.336 218.49 234.68 220.802C235.111 223.173 235.722 225.507 236.508 227.786C238.088 233.003 240.011 238.111 242.264 243.076C242.339 243.24 242.612 243.117 242.55 242.946C240.941 238.404 239.277 233.876 237.824 229.306C236.426 224.846 234.762 220.222 235.532 215.482C235.963 213.209 236.612 210.982 237.469 208.833C238.297 206.623 239.179 204.438 240.116 202.279C241.971 198.016 244.044 193.877 246.172 189.75C247.358 187.438 248.606 185.154 249.814 182.849C251.021 180.543 252.207 178.156 253.565 175.919C253.605 175.79 253.524 175.735 253.462 175.797Z" fill="#263238"/>
<path d="M275.663 171.323C275.111 171.235 274.299 171.426 271.919 171.262C271.257 171.203 270.601 171.096 269.955 170.941C269.3 170.839 268.677 170.587 268.134 170.205C267.27 169.387 266.564 168.416 266.054 167.34C265.416 166.232 264.928 165.044 264.601 163.808C264.601 163.733 264.472 163.767 264.485 163.842C264.615 164.524 264.683 165.206 264.867 165.929C265.043 166.578 265.271 167.212 265.549 167.825C265.987 169.036 266.721 170.119 267.684 170.975C268.762 171.787 270.269 171.937 271.571 172.033C272.328 172.087 275.295 172.033 275.663 171.582C275.772 171.507 275.766 171.344 275.663 171.323Z" fill="#263238"/>
<path d="M283.429 271.681C279.71 264.125 276.073 256.52 272.517 248.868C268.962 241.216 265.511 233.507 262.165 225.742C261.239 223.918 260.501 222.006 259.962 220.033C259.505 217.871 260.173 215.941 261.087 213.984C262.787 210.434 264.689 206.985 266.782 203.652C268.828 200.296 271.037 197.016 273.199 193.722C275.435 190.495 277.484 187.143 279.337 183.683C281.015 180.334 281.949 176.767 281.472 173.016C280.995 169.265 279.378 165.801 277.653 162.507C277.196 161.641 276.725 160.781 276.289 159.908C276.255 159.847 276.152 159.908 276.193 159.97C278.117 163.421 279.965 167.042 280.865 170.882C281.329 172.795 281.472 174.773 281.288 176.733C281.048 178.712 280.491 180.64 279.637 182.442C278.035 185.961 275.798 189.207 273.69 192.433C271.583 195.659 269.339 199.014 267.239 202.356C265.105 205.701 263.145 209.154 261.367 212.702C260.589 214.291 259.737 215.948 259.546 217.728C259.341 219.686 260.044 221.554 260.801 223.321C264.074 231 267.525 238.618 271.031 246.195C274.536 253.772 278.171 261.376 281.861 268.905L283.225 271.749C283.313 271.906 283.484 271.797 283.429 271.681Z" fill="#263238"/>
<path d="M246.541 100.663C247.223 97.5459 250.688 90.494 257.528 91.8716C267.294 93.8426 268.706 112.659 273.569 118.524C282.373 129.15 282.66 139.666 275.444 141.351C267.356 143.233 259.485 134.531 259.758 115.776C259.942 104.032 256.635 98.828 254.302 99.1758C251.97 99.5236 250.681 102.49 250.681 102.49L246.541 100.663Z" fill="#263238"/>
<path d="M246.867 99.4955C247.35 98.0417 248.007 96.6516 248.825 95.3558C249.644 94.028 250.731 92.8852 252.016 92.0003C253.347 91.1013 254.926 90.6433 256.531 90.6909C258.123 90.7389 259.679 91.1718 261.066 91.9526C262.419 92.7619 263.582 93.8528 264.476 95.1512C265.36 96.4269 266.095 97.7999 266.666 99.2432C267.749 102.105 268.509 105.079 268.93 108.109C268.187 105.179 267.225 102.309 266.052 99.5228C265.444 98.1605 264.696 96.8646 263.822 95.6558C262.973 94.4627 261.88 93.4632 260.616 92.7232C259.351 92.0017 257.932 91.5925 256.477 91.5297C255.036 91.4623 253.61 91.8333 252.385 92.5937C251.128 93.3859 250.037 94.4143 249.172 95.6217C248.72 96.2246 248.304 96.8531 247.924 97.504C247.542 98.1315 247.195 98.8067 246.867 99.4955Z" fill="#263238"/>
<path d="M259.724 109.303C259.826 111.165 259.724 113.033 259.683 114.895C259.642 116.757 259.567 118.612 259.56 120.467C259.553 122.322 259.615 124.17 259.805 126.005C259.961 127.831 260.295 129.638 260.801 131.4C261.281 133.15 262.088 134.793 263.181 136.242C264.328 137.652 265.713 138.85 267.273 139.781C268.836 140.73 270.6 141.295 272.422 141.432C273.334 141.502 274.251 141.454 275.15 141.289C275.613 141.202 276.069 141.084 276.514 140.934C276.959 140.803 277.381 140.607 277.769 140.354C277.009 140.908 276.143 141.3 275.226 141.507C274.31 141.745 273.368 141.862 272.422 141.855C271.468 141.837 270.52 141.702 269.599 141.452C268.68 141.194 267.795 140.83 266.96 140.368C266.123 139.909 265.332 139.37 264.6 138.758L264.061 138.295L263.543 137.81C263.191 137.479 262.863 137.123 262.561 136.746C261.388 135.225 260.518 133.494 259.996 131.645C259.052 127.994 258.688 124.217 258.919 120.453C258.973 118.585 259.117 116.723 259.28 114.868C259.444 113.013 259.662 111.165 259.724 109.303Z" fill="#263238"/>
<path d="M245.981 100.716C245.872 99.8502 246.397 98.6703 246.943 98.4589C247.489 98.2475 251.84 99.6456 252.297 100.689C252.754 101.733 250.994 102.844 250.994 102.844L245.981 100.716Z" fill="#3D9963"/>
<path d="M251.191 131.434C248.51 135.26 229.128 151.089 218.557 151.676C213.783 151.935 195.11 149.903 190.95 148.191C185.841 146.09 195.942 133.439 199.134 133.978C203.13 134.66 217.302 136.154 220.126 136.229C224.654 136.345 238.54 128.727 247.89 126.742C252.725 125.726 253.264 128.488 251.191 131.434Z" fill="#EB9481"/>
<path d="M250.979 132.157C248.019 137.32 237.571 146.172 237.571 146.172L235.791 142.885L229.898 132.034C229.898 132.034 239.801 128.092 246.369 126.176C247.14 125.939 247.929 125.766 248.728 125.658C252.971 125.112 253.523 127.724 250.979 132.157Z" fill="#DBDBDB"/>
<path d="M250.98 132.157C248.02 137.319 237.572 146.172 237.572 146.172L235.792 142.884L234.578 140.647L229.893 132.041C229.893 132.041 239.802 128.085 246.37 126.169C247.142 125.938 247.931 125.767 248.729 125.657C248.813 125.651 248.898 125.651 248.982 125.657C252.992 125.221 253.483 127.812 250.98 132.157Z" fill="#DBDBDB"/>
<path d="M238.629 129.368C238.856 130.309 238.856 131.291 238.629 132.232C238.401 131.291 238.401 130.309 238.629 129.368ZM235.826 134.988C235.345 134.98 234.866 135.037 234.4 135.158C234.866 135.276 235.345 135.333 235.826 135.329C236.308 135.333 236.79 135.275 237.258 135.158C236.79 135.038 236.309 134.98 235.826 134.988ZM250.311 126.981C249.829 126.974 249.347 127.031 248.879 127.152C249.347 127.272 249.829 127.329 250.311 127.322C250.792 127.326 251.271 127.268 251.737 127.152C251.271 127.035 250.792 126.978 250.311 126.981ZM244.733 134.101C245.07 134.444 245.451 134.742 245.865 134.988C245.62 134.574 245.322 134.193 244.978 133.856C244.639 133.514 244.259 133.216 243.846 132.969C244.093 133.382 244.391 133.762 244.733 134.101ZM239.229 140.921C239.566 141.267 239.947 141.567 240.361 141.815C240.118 141.399 239.82 141.018 239.474 140.682C239.137 140.337 238.757 140.037 238.342 139.789C238.577 140.203 238.866 140.583 239.202 140.921H239.229Z" fill="white"/>
<path d="M239.392 143.749C238.403 141.751 234.039 133.703 232.981 132.025C232.906 131.909 232.818 131.923 232.872 132.025C234.806 136.046 236.955 139.96 239.31 143.749C239.338 143.831 239.42 143.803 239.392 143.749Z" fill="#263238"/>
<path d="M250.98 132.158C248.02 137.32 237.572 146.173 237.572 146.173L235.792 142.885L234.578 140.649C240.246 135.056 247.072 128.175 248.982 125.645C252.992 125.222 253.483 127.813 250.98 132.158Z" fill="#A6A6A6"/>
<path d="M241.315 155.939L242.863 172.989C244.949 172.893 247.027 172.684 249.09 172.362C254.53 171.546 259.92 170.423 265.233 169C270.505 167.636 276.684 165.753 283.749 163.244C283.749 163.244 267.77 134.422 256.742 126.47C256.49 126.286 256.244 126.115 255.992 125.959C255.944 125.918 255.896 125.897 255.849 125.863C250.836 122.692 246.301 125.181 243.791 128.714C243.157 129.6 237.019 143.554 237.326 148.233C237.605 152.345 241.315 155.939 241.315 155.939Z" fill="#DBDBDB"/>
<path d="M250.184 137.687C250.305 138.153 250.362 138.632 250.354 139.113C250.361 139.596 250.304 140.077 250.184 140.545C250.063 140.077 250.006 139.596 250.013 139.113C250.009 138.632 250.066 138.153 250.184 137.687ZM253.901 155.542C253.897 156.025 253.954 156.506 254.071 156.974C254.195 156.507 254.252 156.025 254.242 155.542C254.249 155.059 254.191 154.578 254.071 154.11C253.954 154.578 253.897 155.06 253.901 155.542ZM265.801 145.38C265.794 145.863 265.851 146.345 265.972 146.813C266.199 145.871 266.199 144.889 265.972 143.948C265.851 144.416 265.794 144.898 265.801 145.38ZM243.977 153.367C243.97 153.85 244.027 154.331 244.148 154.799C244.375 153.858 244.375 152.876 244.148 151.934C244.027 152.402 243.97 152.884 243.977 153.367ZM257.727 140.797C257.244 140.793 256.763 140.851 256.294 140.968C257.236 141.195 258.217 141.195 259.159 140.968C258.693 140.851 258.214 140.794 257.733 140.797H257.727ZM267.875 153.517C267.392 153.506 266.91 153.563 266.443 153.687C267.384 153.914 268.366 153.914 269.307 153.687C268.841 153.567 268.362 153.51 267.882 153.517H267.875ZM252.448 163.597C251.967 163.589 251.488 163.646 251.022 163.767C251.488 163.888 251.967 163.945 252.448 163.938C252.931 163.945 253.412 163.888 253.88 163.767C253.414 163.651 252.935 163.593 252.455 163.597H252.448ZM270.419 161.632C269.938 161.629 269.459 161.686 268.993 161.803C269.932 162.03 270.912 162.03 271.851 161.803C271.382 161.686 270.901 161.629 270.419 161.632ZM250.313 126.96C249.83 126.952 249.349 127.01 248.881 127.13C249.349 127.251 249.83 127.308 250.313 127.301C250.794 127.304 251.273 127.247 251.739 127.13C251.272 127.02 250.793 126.97 250.313 126.98V126.96ZM257.611 130.117C257.948 130.463 258.328 130.763 258.743 131.011C258.501 130.594 258.203 130.213 257.856 129.879C257.519 129.533 257.138 129.233 256.724 128.985C256.97 129.407 257.27 129.794 257.617 130.138L257.611 130.117ZM272.512 146.069C272.85 146.415 273.23 146.715 273.644 146.963C273.401 146.547 273.103 146.167 272.758 145.831C272.419 145.487 272.039 145.187 271.626 144.937C271.869 145.358 272.168 145.746 272.512 146.09V146.069ZM248.683 147.774C249.02 148.12 249.401 148.42 249.815 148.668C249.306 147.832 248.605 147.131 247.769 146.622C248.02 147.052 248.328 147.446 248.683 147.795V147.774ZM262.391 159.32C262.729 159.666 263.109 159.966 263.524 160.214C263.014 159.379 262.313 158.677 261.478 158.168C261.73 158.591 262.037 158.978 262.391 159.32ZM244.769 134.086C245.106 134.43 245.486 134.728 245.901 134.973C245.655 134.559 245.357 134.178 245.014 133.841C244.675 133.499 244.295 133.201 243.882 132.954C244.117 133.37 244.404 133.755 244.734 134.1L244.769 134.086ZM243.8 143.048C244.144 142.709 244.444 142.329 244.694 141.916C244.278 142.159 243.897 142.457 243.561 142.802C243.216 143.14 242.916 143.52 242.668 143.935C243.068 143.689 243.437 143.396 243.766 143.062L243.8 143.048ZM276.161 155.228C276.506 154.893 276.805 154.512 277.048 154.096C276.21 154.603 275.508 155.305 275.002 156.142C275.414 155.892 275.792 155.589 276.127 155.242L276.161 155.228ZM245.566 160.112C245.91 159.774 246.208 159.394 246.453 158.979C245.616 159.486 244.914 160.188 244.407 161.025C244.819 160.775 245.198 160.473 245.532 160.125L245.566 160.112ZM263.83 136.603C264.176 136.266 264.476 135.885 264.724 135.471C264.308 135.717 263.928 136.017 263.592 136.364C263.246 136.702 262.946 137.082 262.698 137.496C263.1 137.251 263.469 136.955 263.796 136.617L263.83 136.603ZM259.302 167.225C259.649 166.889 259.949 166.508 260.195 166.093C259.78 166.339 259.399 166.639 259.063 166.986C258.718 167.323 258.418 167.704 258.17 168.118C258.571 167.872 258.94 167.577 259.268 167.239L259.302 167.225ZM259.302 148.811C259.651 148.477 259.952 148.096 260.195 147.679C259.36 148.188 258.659 148.889 258.149 149.725C258.567 149.47 258.947 149.161 259.281 148.804L259.302 148.811Z" fill="white"/>
<path d="M252.717 125.569C252.622 126.251 249.907 130.684 246.948 130.8C245.979 130.834 245.549 125.583 245.549 125.583L245.427 125.201L243.742 119.874L249.771 115.257L250.651 114.637C250.651 114.637 251.012 116.13 251.449 117.985L251.51 118.251C251.51 118.354 251.565 118.449 251.585 118.551L251.79 119.39C251.838 119.608 251.885 119.82 251.926 120.072L252.069 120.754C252.395 122.343 252.611 123.951 252.717 125.569Z" fill="#EB9481"/>
<path d="M251.478 117.985C251.062 119.559 250.307 121.023 249.267 122.275C248.227 123.527 246.927 124.537 245.456 125.235L243.771 119.909L249.773 115.257L250.653 114.637C250.653 114.637 251.014 116.096 251.478 117.985Z" fill="#263238"/>
<path d="M236.27 111.847C236.222 121.654 242.094 122.793 244.208 122.8C246.125 122.8 252.665 122.588 253.756 112.836C254.847 103.083 250.271 99.9662 245.886 99.7139C241.501 99.4615 236.318 102.019 236.27 111.847Z" fill="#EB9481"/>
<path d="M253.189 113.498C251.586 113.661 251.143 110.299 251.143 110.299C251.143 110.299 247.876 110.394 246.683 105.716C246.809 107.123 247.345 108.463 248.224 109.569C248.224 109.569 242.434 109.119 239.883 104.345C239.883 104.345 240.913 106.78 241.84 107.632C240.368 107.217 239.078 106.319 238.178 105.082C238.178 105.082 237.237 107.892 236.48 108.676C236.48 108.676 235.361 103.738 237.414 101.174C241.738 95.7179 248.838 100.492 248.838 100.492C248.838 100.492 252.807 101.092 254.226 104.066C256.415 108.614 253.189 113.498 253.189 113.498Z" fill="#263238"/>
<path d="M252.159 113.558C252.159 113.558 254.042 110.333 255.494 110.981C256.947 111.628 255.699 116.184 254.13 116.921C253.937 117.03 253.723 117.099 253.501 117.124C253.28 117.148 253.057 117.128 252.843 117.065C252.63 117.001 252.432 116.895 252.26 116.753C252.089 116.611 251.948 116.436 251.846 116.239L252.159 113.558Z" fill="#EB9481"/>
<path d="M237.498 109.862C237.728 109.822 237.956 109.767 238.18 109.698C238.42 109.671 238.646 109.566 238.821 109.398C238.869 109.337 238.895 109.261 238.895 109.183C238.895 109.105 238.869 109.03 238.821 108.968C238.704 108.866 238.563 108.797 238.411 108.767C238.258 108.737 238.101 108.747 237.955 108.798C237.642 108.857 237.363 109.029 237.17 109.282C237.133 109.34 237.112 109.406 237.11 109.475C237.107 109.544 237.124 109.611 237.158 109.671C237.192 109.731 237.241 109.78 237.301 109.814C237.361 109.848 237.429 109.864 237.498 109.862Z" fill="#263238"/>
<path d="M243.893 110.625C243.664 110.602 243.436 110.566 243.211 110.516C242.962 110.511 242.722 110.422 242.529 110.263C242.48 110.203 242.453 110.127 242.453 110.048C242.453 109.97 242.48 109.894 242.529 109.834C242.636 109.722 242.771 109.641 242.92 109.601C243.069 109.56 243.226 109.56 243.375 109.602C243.691 109.637 243.984 109.784 244.2 110.018C244.244 110.074 244.272 110.142 244.279 110.213C244.286 110.284 244.272 110.355 244.24 110.419C244.208 110.483 244.158 110.536 244.097 110.573C244.035 110.609 243.965 110.627 243.893 110.625Z" fill="#263238"/>
<path d="M242.61 112.631C242.61 112.631 242.658 112.631 242.658 112.692C242.658 113.374 242.747 114.138 243.34 114.35V114.39C242.61 114.295 242.467 113.272 242.61 112.631Z" fill="#263238"/>
<path d="M243.178 111.922C244.256 111.819 244.379 113.968 243.376 114.083C242.374 114.199 242.271 112.003 243.178 111.922Z" fill="#263238"/>
<path d="M243.608 112.009C243.806 112.125 244.004 112.33 244.236 112.344C244.468 112.357 244.686 112.112 244.849 111.887H244.884C244.884 112.303 244.774 112.739 244.338 112.828C243.901 112.917 243.656 112.555 243.492 112.146C243.472 112.085 243.533 111.969 243.608 112.009Z" fill="#263238"/>
<path d="M238.855 112.664C238.855 112.664 238.8 112.698 238.807 112.725C238.869 113.407 238.807 114.178 238.234 114.437C238.978 114.321 239.019 113.292 238.855 112.664Z" fill="#263238"/>
<path d="M238.207 112.004C237.123 112.004 237.177 114.159 238.207 114.173C239.237 114.186 239.121 112.018 238.207 112.004Z" fill="#263238"/>
<path d="M237.762 112.152C237.591 112.275 237.428 112.486 237.223 112.507C237.019 112.527 236.8 112.295 236.643 112.07H236.609C236.609 112.486 236.759 112.916 237.162 112.984C237.564 113.052 237.782 112.684 237.844 112.268C237.892 112.22 237.837 112.104 237.762 112.152Z" fill="#263238"/>
<path d="M239.981 115.638C239.981 115.638 239.885 116.62 239.885 117.118C240.803 117.09 241.721 117.186 242.613 117.404C242.825 117.466 242.811 117.288 242.572 117.159C241.861 116.776 241.051 116.612 240.247 116.688C240.213 116.559 240.424 115.14 240.349 115.14C239.983 115.186 239.625 115.283 239.285 115.427C239.421 113.319 239.899 111.246 240.001 109.145C240.001 109.129 239.995 109.113 239.983 109.102C239.972 109.09 239.956 109.084 239.94 109.084C239.923 109.084 239.908 109.09 239.896 109.102C239.885 109.113 239.878 109.129 239.878 109.145C239.302 111.346 238.946 113.599 238.814 115.87C238.835 116.122 239.797 115.727 239.981 115.638Z" fill="#263238"/>
<path d="M240.996 117.118C241.338 117.567 241.817 117.893 242.36 118.046C243.185 118.127 243.24 117.364 242.319 117.016C241.877 116.928 241.419 116.963 240.996 117.118Z" fill="#263238"/>
<path d="M242.374 118.047C242.063 117.995 241.773 117.858 241.535 117.651C241.685 117.385 242.067 117.085 242.967 117.515C243.111 117.829 242.899 118.101 242.374 118.047Z" fill="#FF99BA"/>
<path d="M251.279 124.396C252.48 124.396 254.498 124.697 257.226 126.77C257.226 126.77 251.539 131.346 246.246 131.346C244.357 131.346 243.791 128.707 243.791 128.707C243.791 128.707 246.335 124.437 251.279 124.396Z" fill="#EB9481"/>
<path d="M341.133 320.756H318.852C302.662 320.756 292.759 309.565 290.979 289.248C290.099 279.229 289.56 267.103 288.994 254.268C287.248 214.828 284.855 160.834 269.503 160.834H251.859V156.742H269.503C288.762 156.742 290.958 206.235 293.079 254.098C293.646 266.892 294.184 278.977 295.057 288.88C296.169 301.551 301.195 316.658 318.852 316.658H341.133V320.756Z" fill="#3D9963"/>
<path opacity="0.2" d="M264.817 156.729L263.944 160.821H251.859V156.729H264.817Z" fill="black"/>
<path d="M218.606 134.285H211.473V184.133H218.606V134.285Z" fill="#3D9963"/>
<path d="M211.48 137.967H184.356V179.937H211.48V137.967Z" fill="#3D9963"/>
<path opacity="0.2" d="M211.472 137.973V179.943H204.734L201.713 137.973H211.472Z" fill="black"/>
<path d="M163.541 145.502H184.348V151.776H163.541C162.828 151.776 162.144 151.493 161.641 150.989C161.137 150.485 160.854 149.802 160.854 149.089V148.196C160.853 147.842 160.921 147.492 161.056 147.165C161.191 146.839 161.389 146.542 161.638 146.291C161.888 146.041 162.184 145.843 162.511 145.707C162.837 145.572 163.187 145.502 163.541 145.502Z" fill="#DBDBDB"/>
<path d="M184.349 145.502H177.045V151.77H184.349V145.502Z" fill="#A6A6A6"/>
<path d="M163.541 166.135H184.348V172.409H163.541C162.828 172.409 162.144 172.126 161.641 171.622C161.137 171.118 160.854 170.435 160.854 169.722V168.829C160.853 168.475 160.921 168.125 161.056 167.798C161.191 167.471 161.389 167.174 161.638 166.924C161.888 166.674 162.184 166.475 162.511 166.34C162.837 166.204 163.187 166.135 163.541 166.135Z" fill="#DBDBDB"/>
<path d="M184.349 166.135H177.045V172.402H184.349V166.135Z" fill="#A6A6A6"/>
<path d="M260.758 154.947H239.568V163.315H260.758V154.947Z" fill="#3D9963"/>
<path d="M260.758 154.955H239.568V163.323H260.758V154.955Z" fill="#3D9963"/>
<path opacity="0.2" d="M247.009 154.955L246.313 163.323H239.568V154.955H247.009Z" fill="black"/>
<path d="M218.605 139.549H235.376C236.488 139.549 237.555 139.991 238.342 140.777C239.128 141.564 239.57 142.631 239.57 143.743V174.167C239.57 175.28 239.128 176.346 238.342 177.133C237.555 177.92 236.488 178.361 235.376 178.361H218.605V139.549Z" fill="#3D9963"/>
<path opacity="0.2" d="M227.525 139.549L224.504 178.361H218.611V139.549H227.525Z" fill="black"/>
<g opacity="0.2">
<path d="M225.966 147.393H224.629V170.512H225.966V147.393Z" fill="black"/>
<path d="M229.759 147.393H228.422V170.512H229.759V147.393Z" fill="black"/>
<path d="M233.548 147.393H232.211V170.512H233.548V147.393Z" fill="black"/>
</g>
<path d="M258.796 131.535C261.142 138.116 257.78 162.225 253.804 167.333C247.898 174.903 236.229 181.867 231.768 184.042C229.818 184.99 221.081 171.023 222.984 169.72C227.076 166.917 240.109 160.227 241.214 158.897C242.319 157.567 248.266 144.793 250.646 137.612C253.845 127.968 257.616 128.214 258.796 131.535Z" fill="#EB9481"/>
<path d="M231.754 184.083C225.569 187.616 213.259 187.098 211.581 186.586L209.412 185.904C206.827 185.175 206.132 183.749 206.132 183.749C206.132 183.749 202.899 183.79 202.544 181.84C202.149 179.65 206.766 180.019 209.433 178.668C215.571 175.579 223.359 169.468 225.03 168.404L231.754 184.083Z" fill="#EB9481"/>
<path d="M218.115 179.937C216.339 180.867 214.5 181.671 212.611 182.344C210.504 182.955 208.354 183.411 206.18 183.708C206.17 183.712 206.161 183.719 206.154 183.728C206.148 183.737 206.145 183.748 206.145 183.759C206.145 183.77 206.148 183.781 206.154 183.79C206.161 183.8 206.17 183.807 206.18 183.81C210.447 183.694 214.601 182.411 218.19 180.1C218.279 180.046 218.204 179.896 218.115 179.937Z" fill="#263238"/>
<path d="M220.514 183.355C218.7 184.105 215.501 185.401 209.404 185.851C209.404 185.851 209.404 185.885 209.404 185.892C213.276 186.16 217.147 185.345 220.582 183.539C220.691 183.457 220.637 183.307 220.514 183.355Z" fill="#263238"/>
<path d="M216.559 174.489C217.193 173.807 216.818 173.439 215.14 173.739C213.463 174.039 207.086 176.671 206.356 174.373C205.626 172.075 214.683 168.487 217.514 168.194C220.071 168.062 222.634 168.137 225.179 168.419C223.556 169.469 219.71 172.388 216.559 174.489Z" fill="#EB9481"/>
<path d="M252.214 133.192C256.34 124.51 260.105 126.808 260.466 135.395C260.588 141.358 260.319 147.322 259.661 153.249L244.705 148.967C244.705 148.967 249.575 138.75 252.214 133.192Z" fill="#DBDBDB"/>
<path d="M255.938 128.131C256.773 128.64 257.475 129.342 257.984 130.177C257.149 129.668 256.447 128.966 255.938 128.131ZM250.011 139.125C250.004 139.608 250.061 140.089 250.182 140.557C250.302 140.089 250.36 139.608 250.352 139.125C250.36 138.644 250.303 138.165 250.182 137.699C250.064 138.165 250.007 138.644 250.011 139.125ZM257.732 140.809C257.249 140.805 256.768 140.863 256.299 140.98C257.241 141.207 258.223 141.207 259.164 140.98C258.696 140.858 258.215 140.796 257.732 140.796V140.809ZM248.681 147.793C249.019 148.138 249.399 148.439 249.814 148.686C249.304 147.851 248.603 147.15 247.768 146.64C248.02 147.063 248.327 147.451 248.681 147.793ZM259.28 148.802C259.629 148.468 259.929 148.087 260.173 147.67C259.338 148.179 258.636 148.881 258.127 149.716C258.551 149.465 258.939 149.158 259.28 148.802Z" fill="white"/>
<path d="M250.795 135.84C250.236 136.979 249.649 138.098 249.063 139.25C249.163 138.718 249.245 138.179 249.308 137.634H249.267C249.185 138.057 249.083 138.479 249.001 138.902C248.967 139.107 248.926 139.312 248.885 139.516C248.885 139.557 248.885 139.598 248.885 139.646C248.428 140.519 247.978 141.398 247.521 142.285C247.003 143.349 246.519 144.42 246.028 145.49C245.537 146.561 245.08 147.871 244.527 148.955C244.997 149.151 245.487 149.297 245.987 149.392C246.116 149.439 246.185 149.31 246.048 149.289C245.912 149.269 244.793 148.825 244.78 148.819C245.271 147.734 245.878 146.711 246.396 145.647C246.914 144.583 247.446 143.533 247.944 142.462C248.954 140.294 249.84 138.063 250.843 135.888C250.843 135.833 250.795 135.813 250.795 135.84Z" fill="#263238"/>
<path d="M261.087 141.008C260.951 141.452 260.794 141.895 260.678 142.372C260.637 142.563 260.59 142.747 260.542 142.938C260.596 141.383 260.646 139.833 260.692 138.287C260.481 140.824 260.262 143.354 260.099 145.891C259.861 148.321 259.75 150.761 259.764 153.202C259.316 153.096 258.86 153.026 258.4 152.991C258.896 153.202 259.416 153.351 259.949 153.434C260.324 150.979 260.351 148.265 260.474 145.796C260.508 145.114 260.528 144.432 260.556 143.702C260.637 143.273 260.76 142.85 260.876 142.427C260.992 142.004 261.081 141.513 261.176 141.063C261.142 140.995 261.094 140.981 261.087 141.008Z" fill="#263238"/>
<path d="M259.056 150.987C256.949 150.236 248.219 147.481 246.296 147.011C246.159 146.976 246.105 147.051 246.241 147.099C250.425 148.654 254.692 149.977 259.022 151.062C259.076 151.082 259.11 151 259.056 150.987Z" fill="#263238"/>
<path d="M185.734 148.675C187.78 149.302 187.364 146.506 187.364 146.506C187.364 146.506 188.967 150.38 191.347 150.21C193.727 150.039 192.99 146.677 192.95 146.431C193.031 146.636 194.6 150.155 196.973 149.739C199.347 149.323 198.208 146.036 198.126 145.831C198.269 145.995 200.172 148.17 201.918 147.441C204.891 146.186 200.145 140.484 200.492 137.893L204.673 138.015C204.81 138.002 204.947 137.982 205.082 137.954L205.239 135.819C203.903 135.277 202.612 134.629 201.379 133.882C199.804 132.996 198.283 132.191 197.151 132.164C196.643 132.137 196.14 132.274 195.716 132.555C195.292 132.837 194.97 133.247 194.798 133.726C194.798 133.726 193.57 131.789 191.688 132.061C190.726 132.205 190.099 133.876 190.099 133.876C189.796 133.448 189.381 133.112 188.9 132.906C188.418 132.701 187.889 132.632 187.371 132.709C186.048 132.982 185.625 134.619 185.625 134.619C185.625 134.619 183.947 133.63 182.685 134.353C180.155 135.758 181.315 147.311 185.734 148.675Z" fill="#EB9481"/>
<path d="M201.01 137.647L204.652 137.981C204.789 137.968 204.926 137.948 205.061 137.92C209.658 137.088 212.522 131.823 209.153 131.448C206.623 131.155 203.881 134.517 201.323 133.842L201.01 137.647Z" fill="#EB9481"/>
<path d="M185.535 134.83H185.474C184.894 138.864 185.555 142.979 187.37 146.629C187.431 146.745 187.643 146.69 187.602 146.554C186.347 142.767 185.65 138.818 185.535 134.83Z" fill="#263238"/>
<path d="M190.098 133.788C190.098 133.74 190.023 133.74 190.016 133.788C189.402 138.236 190.398 142.757 192.826 146.534C192.914 146.664 193.126 146.691 193.03 146.534C191.516 143.902 190.098 137.532 190.098 133.788Z" fill="#263238"/>
<path d="M198.398 145.996C196.045 142.286 195.11 138.194 194.763 133.856C194.763 133.802 194.681 133.815 194.667 133.856C194.265 136.025 194.776 138.767 195.349 140.867C195.85 142.826 196.854 144.62 198.261 146.071C198.33 146.132 198.452 146.078 198.398 145.996Z" fill="#263238"/>
<path d="M140.786 301.446C139.374 301.916 98.9522 301.8 97.4109 300.825C96.8312 300.457 96.5039 294.564 96.3129 287.437C96.2652 285.903 96.2379 284.314 96.2106 282.698C96.2106 280.788 96.156 278.851 96.1424 276.969C96.0947 268.526 96.2106 261.092 96.2106 261.092H122.529V276.969V282.698L122.393 287.437C122.393 287.437 137.847 294.407 139.443 295.662C141.038 296.917 142.198 301.009 140.786 301.446Z" fill="#EB9481"/>
<path d="M140.788 301.446C139.377 301.916 98.9544 301.8 97.4131 300.825C96.8334 300.457 96.506 294.564 96.315 287.437C96.2673 285.903 96.24 284.314 96.2127 282.698C96.2127 280.788 96.1582 278.851 96.1445 276.969H122.517V282.698L122.381 287.437C122.381 287.437 137.835 294.407 139.431 295.662C141.027 296.917 142.2 301.009 140.788 301.446Z" fill="white"/>
<path d="M140.91 301.533C139.989 301.84 122.775 301.901 110.22 301.642C107.315 301.574 104.662 301.499 102.527 301.403C99.5738 301.267 97.596 301.11 97.2755 300.906C96.5594 300.449 96.2252 291.801 96.0615 282.676H122.503L122.366 287.45C122.366 287.45 137.909 294.461 139.491 295.722C141.074 296.984 142.356 301.056 140.91 301.533Z" fill="#3D9963"/>
<path d="M140.31 299.911C133.49 299.72 106.006 299.611 99.2538 299.945C99.1993 299.945 99.1993 299.98 99.2538 299.986C106.006 300.321 133.497 300.205 140.31 300.02C140.474 300.014 140.481 299.911 140.31 299.911Z" fill="#263238"/>
<path d="M123.356 285.936C120.676 285.431 117.395 285.833 115.343 287.736C115.261 287.811 115.343 287.92 115.459 287.893C118.023 287.071 120.669 286.529 123.349 286.277C123.395 286.278 123.438 286.26 123.471 286.229C123.504 286.198 123.522 286.155 123.523 286.11C123.524 286.064 123.507 286.021 123.476 285.988C123.444 285.955 123.401 285.937 123.356 285.936Z" fill="#263238"/>
<path d="M125.305 287.123C122.625 286.612 119.345 287.014 117.285 288.924C117.21 288.992 117.285 289.108 117.401 289.08C119.969 288.254 122.62 287.707 125.305 287.451C125.341 287.44 125.372 287.419 125.394 287.389C125.416 287.36 125.428 287.324 125.428 287.287C125.428 287.25 125.416 287.214 125.394 287.185C125.372 287.155 125.341 287.133 125.305 287.123Z" fill="#263238"/>
<path d="M127.224 288.281C124.543 287.77 121.263 288.172 119.21 290.075C119.128 290.15 119.21 290.266 119.319 290.239C121.884 289.42 124.53 288.875 127.21 288.616C127.249 288.61 127.284 288.59 127.311 288.561C127.337 288.531 127.352 288.494 127.354 288.454C127.355 288.415 127.343 288.376 127.32 288.344C127.296 288.313 127.262 288.291 127.224 288.281Z" fill="#263238"/>
<path d="M129.153 289.455C126.473 288.944 123.192 289.346 121.14 291.249C121.058 291.324 121.14 291.44 121.255 291.413C123.817 290.589 126.461 290.045 129.139 289.789C129.178 289.783 129.214 289.764 129.24 289.734C129.267 289.705 129.282 289.667 129.283 289.628C129.285 289.589 129.273 289.55 129.249 289.518C129.225 289.487 129.191 289.465 129.153 289.455Z" fill="#263238"/>
<path d="M128.327 279.75C127.277 278.297 125.313 278.945 124.194 279.879C122.298 281.526 120.868 283.643 120.048 286.017C120.043 286.028 120.041 286.039 120.042 286.05C120.043 286.061 120.047 286.072 120.053 286.081C120.059 286.091 120.067 286.099 120.077 286.104C120.087 286.11 120.098 286.113 120.109 286.113C120.109 286.317 120.3 286.536 120.525 286.447C122.742 285.635 125.217 285.042 127.113 283.569C128.225 282.71 129.323 281.127 128.327 279.75ZM123.635 284.524C122.557 284.947 121.459 285.322 120.396 285.785C121.169 284.568 122.005 283.391 122.898 282.259C123.336 281.716 123.812 281.206 124.324 280.732C125.122 280.002 128.286 278.468 127.802 281.414C127.536 283.03 124.924 284.012 123.635 284.524Z" fill="#263238"/>
<path d="M113.236 285.288C115.438 286.236 118.01 286.195 120.328 286.433C120.381 286.433 120.432 286.421 120.479 286.398C120.525 286.374 120.566 286.341 120.598 286.299C120.629 286.258 120.651 286.209 120.661 286.158C120.671 286.107 120.669 286.054 120.656 286.004C120.664 285.997 120.671 285.989 120.676 285.98C120.681 285.97 120.683 285.96 120.683 285.949C120.683 285.939 120.681 285.928 120.676 285.919C120.671 285.909 120.664 285.901 120.656 285.895C119.279 283.804 117.38 282.111 115.145 280.984C113.822 280.357 111.735 280.22 111.108 281.891C110.48 283.562 111.947 284.735 113.236 285.288ZM112.028 283.378C110.828 280.65 114.272 281.332 115.227 281.844C115.839 282.183 116.429 282.561 116.993 282.976C118.141 283.847 119.243 284.779 120.294 285.765C119.149 285.581 117.996 285.492 116.843 285.349C115.466 285.178 112.69 284.878 112.028 283.378Z" fill="#263238"/>
<path d="M126.268 280.823L93.6545 281.41C93.6545 281.41 89.2147 252.554 86.2958 234.611C85.1909 227.866 84.3179 222.655 83.9633 221.087C83.1176 217.342 66.5928 157.913 66.5928 157.913L90.2991 157.879H98.4013C98.4013 157.879 97.8829 167.816 98.1898 168.859C102.418 183.242 111.059 208.749 113.76 217.636C117.9 231.296 126.268 280.823 126.268 280.823Z" fill="#A6A6A6"/>
<path d="M123.301 275.822C118.622 275.788 102.022 275.604 95.7888 276.184C95.78 276.187 95.7724 276.193 95.767 276.201C95.7616 276.209 95.7588 276.218 95.7588 276.228C95.7588 276.238 95.7616 276.247 95.767 276.255C95.7724 276.263 95.78 276.269 95.7888 276.272C97.9371 276.579 118.622 276.102 123.308 275.952C123.318 275.955 123.329 275.955 123.339 275.953C123.35 275.95 123.36 275.946 123.368 275.939C123.376 275.932 123.383 275.923 123.387 275.914C123.392 275.904 123.394 275.893 123.393 275.882C123.393 275.872 123.39 275.861 123.384 275.852C123.379 275.843 123.371 275.835 123.362 275.829C123.353 275.823 123.343 275.819 123.332 275.818C123.322 275.817 123.311 275.818 123.301 275.822Z" fill="#263238"/>
<path d="M94.1872 251.229C93.0597 243.767 91.8025 236.325 90.4158 228.9C89.7338 225.251 88.9904 221.609 88.0356 217.988C87.0808 214.366 85.8668 210.786 84.6256 207.233C82.184 200.167 79.8516 193.068 77.6624 185.92C75.4732 178.773 73.434 171.598 71.5244 164.362C71.2789 163.448 71.0402 162.534 70.7742 161.634C70.7742 161.559 70.6446 161.593 70.6582 161.634C71.4016 165.276 72.3632 168.884 73.2839 172.485C74.2046 176.086 75.1935 179.673 76.2234 183.247C78.2966 190.421 80.545 197.546 82.9683 204.621C84.1755 208.14 85.4303 211.652 86.5011 215.219C87.5718 218.786 88.4039 222.4 89.1472 226.042C90.6545 233.435 91.9366 240.876 93.1233 248.316C94.31 255.757 95.3262 263.32 96.3219 270.822C96.4515 271.77 96.5742 272.725 96.697 273.68C96.7311 273.946 97.1539 273.946 97.1266 273.68C96.356 266.198 95.2989 258.703 94.1872 251.229Z" fill="#263238"/>
<path d="M90.2991 157.863L86.2958 234.609C85.1909 227.864 84.3179 222.653 83.9633 221.085C83.1176 217.341 66.5928 157.911 66.5928 157.911L90.2991 157.863Z" fill="#263238"/>
<path d="M100.339 307.911C98.9271 308.381 58.505 308.265 56.9636 307.283C56.3839 306.922 56.0566 301.029 55.8656 293.902C55.8179 292.361 55.7906 290.779 55.7633 289.162C55.7633 287.246 55.7088 285.316 55.6951 283.434C55.6474 274.99 55.7633 267.557 55.7633 267.557H82.0749V289.169L81.9385 293.909C81.9385 293.909 97.3926 300.879 98.9885 302.134C100.584 303.389 101.751 307.447 100.339 307.911Z" fill="#EB9481"/>
<path d="M100.338 307.911C98.9263 308.381 58.5042 308.265 56.9629 307.283C56.3832 306.922 56.0558 301.029 55.8648 293.902C55.8171 292.361 55.7898 290.779 55.7625 289.162C55.7625 287.246 55.708 285.316 55.6943 283.434H82.0673V289.169L81.9309 293.909C81.9309 293.909 97.385 300.879 98.9809 302.134C100.577 303.389 101.75 307.447 100.338 307.911Z" fill="white"/>
<path d="M100.462 307.973C99.5409 308.273 82.3204 308.334 69.7716 308.075C66.8731 308.013 64.2201 307.932 62.0787 307.843C59.1324 307.707 57.1546 307.543 56.8273 307.338C56.1453 306.881 55.777 298.24 55.6201 289.115H82.0613L81.9249 293.889C81.9249 293.889 97.4813 300.893 99.0635 302.128C100.646 303.362 101.88 307.495 100.462 307.973Z" fill="#3D9963"/>
<path d="M99.8815 306.343C93.0615 306.158 65.5701 306.042 58.8251 306.377C58.7705 306.377 58.7705 306.418 58.8251 306.424C65.5701 306.752 93.0683 306.643 99.8815 306.459C100.025 306.452 100.025 306.349 99.8815 306.343Z" fill="#263238"/>
<path d="M82.9051 292.373C80.2249 291.862 76.9445 292.264 74.8916 294.167C74.8098 294.242 74.8916 294.358 75.0008 294.331C77.566 293.511 80.2112 292.967 82.8915 292.707C82.9305 292.701 82.9661 292.682 82.9924 292.652C83.0186 292.623 83.0339 292.585 83.0355 292.546C83.0371 292.507 83.025 292.468 83.0012 292.436C82.9774 292.405 82.9435 292.383 82.9051 292.373Z" fill="#263238"/>
<path d="M84.8357 293.549C82.1554 293.038 78.875 293.44 76.8222 295.343C76.7403 295.418 76.8222 295.534 76.9381 295.506C79.5022 294.683 82.1478 294.138 84.8288 293.883C84.8676 293.876 84.9027 293.856 84.9282 293.826C84.9538 293.796 84.9682 293.758 84.969 293.719C84.9698 293.68 84.9569 293.641 84.9326 293.61C84.9083 293.579 84.8741 293.558 84.8357 293.549Z" fill="#263238"/>
<path d="M86.7721 294.713C84.0919 294.208 80.8114 294.611 78.7518 296.513C78.6768 296.588 78.7518 296.698 78.8677 296.67C81.4331 295.853 84.0783 295.311 86.7585 295.054C86.8037 295.056 86.8478 295.04 86.881 295.009C86.9143 294.978 86.934 294.936 86.9358 294.89C86.9376 294.845 86.9214 294.801 86.8907 294.768C86.86 294.734 86.8173 294.715 86.7721 294.713Z" fill="#263238"/>
<path d="M88.704 295.887C86.0237 295.382 82.7433 295.784 80.6905 297.687C80.6086 297.762 80.6905 297.871 80.7996 297.844C83.3651 297.027 86.0102 296.485 88.6903 296.228C88.7355 296.23 88.7796 296.213 88.8129 296.183C88.8461 296.152 88.8658 296.109 88.8677 296.064C88.8695 296.019 88.8532 295.975 88.8225 295.942C88.7918 295.908 88.7492 295.889 88.704 295.887Z" fill="#263238"/>
<path d="M87.878 286.19C86.8278 284.731 84.8636 285.379 83.7383 286.32C81.8418 287.967 80.4118 290.084 79.5917 292.458C79.5886 292.469 79.588 292.48 79.59 292.491C79.5919 292.502 79.5963 292.513 79.6028 292.522C79.6094 292.531 79.6179 292.539 79.6278 292.544C79.6377 292.55 79.6487 292.553 79.6599 292.553C79.6569 292.605 79.6663 292.658 79.6875 292.705C79.7087 292.753 79.741 292.795 79.7817 292.828C79.8224 292.86 79.8704 292.883 79.9216 292.893C79.9728 292.904 80.0257 292.902 80.076 292.887C82.2925 292.076 84.7613 291.483 86.6641 290.009C87.7962 289.171 88.8669 287.561 87.878 286.19ZM83.1859 290.964C82.1015 291.394 81.0103 291.762 79.9464 292.233C80.758 291.039 81.515 289.818 82.4425 288.707C82.8836 288.165 83.3598 287.652 83.8679 287.172C84.6726 286.449 87.8303 284.915 87.3529 287.854C87.1142 289.471 84.4749 290.453 83.1859 290.957V290.964Z" fill="#263238"/>
<path d="M72.7918 291.728C75.0014 292.676 77.5658 292.635 79.8914 292.874C79.9442 292.874 79.9964 292.862 80.0437 292.838C80.0909 292.815 80.1319 292.78 80.1631 292.737C80.1944 292.695 80.2152 292.645 80.2236 292.593C80.2321 292.541 80.2281 292.488 80.2119 292.437C80.2225 292.434 80.2322 292.428 80.2402 292.42C80.2483 292.412 80.2545 292.403 80.2584 292.393C80.2623 292.382 80.2638 292.371 80.2629 292.36C80.2619 292.349 80.2585 292.338 80.2528 292.328C78.8631 290.24 76.9517 288.552 74.7082 287.431C73.3851 286.804 71.2982 286.668 70.6707 288.339C70.0433 290.009 71.4891 291.176 72.7918 291.728ZM71.5914 289.812C70.3911 287.084 73.8352 287.766 74.79 288.284C75.4036 288.619 75.9937 288.995 76.5564 289.409C77.7029 290.285 78.8045 291.219 79.8573 292.205C78.7047 292.015 77.5521 291.933 76.3995 291.789C75.0151 291.619 72.2393 291.319 71.5778 289.812H71.5914Z" fill="#263238"/>
<path d="M85.7496 286.871H53.8389C53.8389 286.871 60.7748 187.927 59.6563 182.382C57.8217 173.305 59.0425 162.877 63.3391 157.83H91.7308C91.7308 157.83 92.2968 165.796 89.3643 170.556C89.3643 170.556 86.6976 172.241 85.4086 172.984L85.7496 286.871Z" fill="#A6A6A6"/>
<path d="M82.7768 281.708C78.3575 281.599 79.6328 281.565 75.2066 281.504C73.0447 281.47 58.8386 281.272 56.7926 281.592C56.7449 281.592 56.7449 281.674 56.7926 281.681C58.8386 282.029 73.0379 281.981 75.2066 281.967C79.626 281.967 78.3575 281.906 82.7768 281.838C82.7905 281.833 82.8024 281.825 82.8108 281.813C82.8192 281.801 82.8237 281.787 82.8237 281.773C82.8237 281.759 82.8192 281.745 82.8108 281.733C82.8024 281.721 82.7905 281.713 82.7768 281.708Z" fill="#263238"/>
<path d="M91.1377 169.307C88.3462 170.653 85.6745 172.234 83.1515 174.033C83.1307 174.046 83.1158 174.066 83.11 174.09C83.1043 174.113 83.1081 174.138 83.1208 174.159C83.1335 174.18 83.1539 174.195 83.1775 174.201C83.2012 174.206 83.2262 174.203 83.247 174.19C85.975 172.696 88.703 171.25 91.3219 169.614C91.3626 169.589 91.3919 169.55 91.4034 169.504C91.4149 169.458 91.4077 169.409 91.3832 169.368C91.3588 169.327 91.3192 169.298 91.2732 169.287C91.2271 169.275 91.1784 169.282 91.1377 169.307Z" fill="#263238"/>
<path d="M87.5164 168.897C87.3546 169.448 87.227 170.008 87.1345 170.575C87.0186 171.02 86.9885 171.482 87.0458 171.939C87.0458 172.027 87.189 172.021 87.2299 171.939C87.444 171.509 87.5912 171.049 87.6664 170.575C87.8028 170.05 87.9529 169.531 88.0688 169.006C88.1506 168.672 87.6255 168.556 87.5164 168.897Z" fill="#263238"/>
<path d="M87.2633 166.164C87.3383 165.687 87.4134 165.216 87.502 164.745C87.5907 164.275 87.7134 163.763 87.7612 163.272C87.7612 163.191 87.8976 163.218 87.8839 163.272C87.8089 163.75 87.8021 164.241 87.7612 164.718C87.7203 165.196 87.6793 165.68 87.6316 166.157C87.5356 167.057 87.3944 167.952 87.2088 168.837C87.6798 168.757 88.1271 168.573 88.5182 168.299C88.8808 167.925 89.119 167.449 89.2002 166.935C89.3366 166.389 89.4594 165.843 89.6026 165.298C89.7958 164.707 89.935 164.1 90.0186 163.484C90.0186 163.402 90.155 163.429 90.1414 163.484C90.0305 164.78 89.7883 166.062 89.4184 167.31C89.3387 167.805 89.0847 168.254 88.7023 168.578C88.2099 168.841 87.6693 169.001 87.1133 169.049C87.0519 169.049 86.9564 169.049 86.9632 168.974C87.0166 168.033 87.1167 167.095 87.2633 166.164Z" fill="#263238"/>
<path d="M64.2678 182.02C64.0632 179.933 63.7222 177.86 63.4971 175.773C63.0707 171.595 63.324 167.376 64.2473 163.279C64.2473 163.204 64.145 163.169 64.1314 163.279C63.3239 166.877 62.9484 170.558 63.0129 174.245C63.1971 177.928 63.8518 181.556 63.9063 185.246C63.9609 188.935 63.6745 192.714 63.4358 196.437C63.1971 200.161 62.9515 203.939 62.7128 207.684C61.7444 222.749 60.851 237.814 59.9303 252.887C59.6757 257.088 59.4301 261.293 59.1937 265.504C58.9482 269.78 58.6481 274.063 58.5117 278.352C58.5117 278.721 59.0437 278.693 59.0778 278.352C59.7189 270.789 60.0871 263.198 60.5714 255.635C61.0556 248.072 61.4852 240.631 61.9354 233.129C62.3855 225.627 62.8424 218.125 63.2994 210.623C63.5176 206.877 63.7449 203.13 63.9814 199.384C64.1996 195.653 64.4724 191.916 64.527 188.178C64.557 186.122 64.4704 184.066 64.2678 182.02Z" fill="#263238"/>
<path d="M74.3198 162.999C74.3137 162.989 74.3052 162.981 74.295 162.975C74.2849 162.97 74.2734 162.967 74.2618 162.967C74.2502 162.967 74.2388 162.97 74.2287 162.975C74.2185 162.981 74.21 162.989 74.2039 162.999C74.0345 163.493 73.9447 164.011 73.9379 164.534C73.8495 165.093 73.7196 165.644 73.5491 166.184C73.236 167.269 72.6489 168.256 71.8441 169.048C70.0573 170.719 67.6635 171.34 65.3583 171.899C65.3431 171.904 65.3297 171.913 65.3202 171.926C65.3108 171.939 65.3057 171.955 65.3057 171.971C65.3057 171.987 65.3108 172.002 65.3202 172.015C65.3297 172.028 65.3431 172.038 65.3583 172.042C66.728 172.104 68.0962 171.891 69.3821 171.415C70.5292 171.064 71.5874 170.471 72.4852 169.676C73.3424 168.86 73.9281 167.801 74.1629 166.641C74.2848 166.035 74.3488 165.418 74.3539 164.8C74.3539 164.506 74.3539 164.213 74.3539 163.913C74.4028 163.609 74.3912 163.298 74.3198 162.999Z" fill="#263238"/>
<path d="M87.6862 124.726C88.2727 129.363 97.3569 146.604 107.028 154.243C110.574 157.046 129.377 158.703 134.083 158.335C139.586 157.912 140.412 144.81 137.329 143.787C133.476 142.512 115.648 140.937 112.149 139.695C107.894 138.154 100.146 128.258 92.7807 122.134C88.9956 118.963 87.236 121.159 87.6862 124.726Z" fill="#EB9481"/>
<path d="M134.083 158.341C135.822 158.294 143.781 157.38 145.943 156.63C148.105 155.879 154.127 153.274 153.745 151.562C153.363 149.85 151.508 150.471 151.508 150.471C151.508 150.471 153.888 148.964 153.322 147.279C152.756 145.595 149.912 146.659 149.912 146.659C149.912 146.659 152.245 144.933 151.556 143.29C150.867 141.646 148.214 143.194 148.214 143.194C148.214 143.194 150.424 141.714 149.291 140.596C147.927 139.232 144.163 142.444 141.721 143.092C141.162 143.242 130.25 145.281 130.25 145.281L134.083 158.341Z" fill="#EB9481"/>
<path d="M148.495 143.064C145.72 145.396 144.103 145.942 140.571 146.426C140.558 146.43 140.548 146.438 140.541 146.448C140.533 146.459 140.529 146.471 140.529 146.484C140.529 146.496 140.533 146.509 140.541 146.519C140.548 146.53 140.558 146.538 140.571 146.542C144.069 146.378 146.197 145.989 148.611 143.193C148.714 143.057 148.604 142.954 148.495 143.064Z" fill="#263238"/>
<path d="M150.152 146.467C147.062 148.676 145.316 149.242 141.674 150.04C141.627 150.04 141.64 150.143 141.674 150.136C145.33 149.665 147.444 149.229 150.247 146.651C150.363 146.521 150.295 146.364 150.152 146.467Z" fill="#263238"/>
<path d="M151.318 150.504C148.174 152.393 146.285 153.137 142.63 153.444C142.612 153.444 142.594 153.451 142.581 153.464C142.569 153.476 142.562 153.494 142.562 153.512C142.562 153.53 142.569 153.547 142.581 153.56C142.594 153.573 142.612 153.58 142.63 153.58C145.817 153.772 148.952 152.704 151.359 150.606C151.543 150.463 151.516 150.388 151.318 150.504Z" fill="#263238"/>
<path d="M127.728 143.848C129.565 142.661 131.486 141.61 133.477 140.704C135.4 140.022 143.516 140.022 143.604 141.782C143.727 144.046 139.042 144.953 136.689 145.103C136.689 145.103 136.982 150.334 133.756 151.719C130.531 153.103 127.728 143.848 127.728 143.848Z" fill="#EB9481"/>
<path d="M143.441 142.418C142.077 144.559 138.96 144.552 136.689 144.866C136.655 144.868 136.621 144.878 136.592 144.896C136.563 144.914 136.539 144.939 136.522 144.969C136.505 144.999 136.495 145.033 136.495 145.067C136.494 145.102 136.503 145.136 136.519 145.166C136.519 147.369 135.837 150.465 133.893 151.768C133.832 151.809 133.893 151.897 133.941 151.863C136.198 150.745 137.112 147.771 136.982 145.337C139.315 145.057 142.438 144.927 143.461 142.424C143.468 142.411 143.448 142.404 143.441 142.418Z" fill="#263238"/>
<path d="M117.839 158.088C117.839 158.088 108.209 155.455 107.036 154.535C105.756 153.529 104.535 152.449 103.38 151.302C94.6165 142.688 89.3241 130.944 87.8919 126.852C86.3779 122.494 87.7692 118.32 91.8271 121.13C92.1536 121.361 92.4678 121.61 92.7682 121.874C97.5422 126.034 110.309 138.685 111.864 139.333C113.419 139.981 120.914 140.963 120.914 140.963L117.839 158.088Z" fill="#455A64"/>
<path d="M103.38 151.302C94.6165 142.688 89.3241 130.944 87.8919 126.852C86.3779 122.494 87.7692 118.32 91.8271 121.13L103.38 151.302Z" fill="#263238"/>
<path d="M117.804 140.663C117.356 141.979 116.985 143.321 116.693 144.68C116.359 146.044 116.011 147.408 115.731 148.772C115.124 151.447 114.669 154.154 114.367 156.881C114.367 156.897 114.374 156.913 114.385 156.924C114.397 156.936 114.412 156.942 114.429 156.942C114.445 156.942 114.46 156.936 114.472 156.924C114.483 156.913 114.49 156.897 114.49 156.881C115.227 154.208 115.772 151.473 116.331 148.758C116.611 147.394 116.863 146.071 117.143 144.735C117.423 143.398 117.757 142.007 117.907 140.683C117.909 140.67 117.907 140.656 117.899 140.644C117.891 140.633 117.879 140.625 117.866 140.622C117.852 140.619 117.838 140.622 117.827 140.63C117.815 140.638 117.807 140.649 117.804 140.663Z" fill="#263238"/>
<path d="M97.0304 134.171C97.2554 135.18 97.4327 136.217 97.5691 137.281C97.5658 137.24 97.5658 137.199 97.5691 137.158C97.6237 136.578 97.6646 135.985 97.7669 135.412C97.7669 135.412 97.8215 135.378 97.8215 135.412C97.8567 136.001 97.8339 136.593 97.7533 137.178C97.7192 137.458 97.6851 137.738 97.6442 138.01C97.6919 138.481 97.7328 138.951 97.7601 139.415C97.8147 140.302 97.9852 144.087 97.9647 144.735C97.9647 144.871 97.8078 144.885 97.7737 144.735C97.6442 144.053 97.3032 140.172 97.2077 139.279C97.0292 137.575 96.9427 135.863 96.9485 134.15C96.9622 134.13 97.0167 134.137 97.0304 134.171Z" fill="#263238"/>
<path d="M98.1148 162.502C96.7508 163.729 95.0868 165.523 85.5115 166.191C84.9113 166.191 84.2975 166.239 83.6837 166.191C74.4631 165.932 61.5255 158.689 60.7549 158.116C60.7549 158.116 70.6916 131.232 83.8338 120.913C85.7093 119.433 89.7331 120.163 92.2496 121.684C93.1499 122.229 96.1234 127.201 96.7236 131.73C97.3237 136.258 99.472 161.274 98.1148 162.502Z" fill="#455A64"/>
<path d="M90.6469 128.422C88.3281 128.613 85.0067 124.603 83.9155 121.602C83.8405 121.398 84.4407 119.44 85.0545 117.026C85.4228 115.56 85.7979 113.923 86.0298 112.402C86.0775 112.088 87.0528 112.825 87.0528 112.825L88.9487 113.602L95.2231 116.18C94.3848 117.999 93.7732 119.914 93.4022 121.882C93.382 122.095 93.382 122.31 93.4022 122.523C93.4052 122.557 93.4052 122.591 93.4022 122.625C93.3817 123.832 92.8838 128.218 90.6469 128.422Z" fill="#EB9481"/>
<path d="M93.3756 122.516C93.3786 122.55 93.3786 122.584 93.3756 122.618C93.0439 122.614 92.7132 122.582 92.3868 122.523C85.976 121.398 86.4329 113.098 86.4329 113.098L88.9563 113.596L95.2307 116.173C94.3924 117.992 93.7808 119.907 93.4098 121.875C93.3783 122.087 93.3668 122.302 93.3756 122.516Z" fill="#263238"/>
<path d="M85.382 102.409C84.1613 105.778 85.4639 115.749 87.7827 118.095C91.1449 121.505 96.9078 122.071 99.8336 117.965C102.678 113.996 100.747 101.024 98.1354 98.8691C94.2821 95.7115 87.1825 97.4369 85.382 102.409Z" fill="#EB9481"/>
<path d="M94.4656 109.312C94.4656 109.312 94.4179 109.353 94.4247 109.381C94.527 110.063 94.5406 110.833 93.9541 111.133C93.9541 111.133 93.9541 111.174 93.9541 111.168C94.6975 110.97 94.677 109.926 94.4656 109.312Z" fill="#263238"/>
<path d="M93.7772 108.684C92.686 108.739 92.8769 110.915 93.8863 110.867C94.8957 110.819 94.6911 108.637 93.7772 108.684Z" fill="#263238"/>
<path d="M98.6004 108.861C98.6004 108.861 98.6549 108.861 98.6549 108.916C98.6959 109.598 98.8527 110.362 99.4802 110.539C98.7095 110.532 98.5254 109.509 98.6004 108.861Z" fill="#263238"/>
<path d="M99.144 108.105C100.222 107.935 100.508 110.104 99.4918 110.267C98.4756 110.431 98.2369 108.255 99.144 108.105Z" fill="#263238"/>
<path d="M92.9323 107.077C93.2188 106.974 93.4711 106.831 93.7507 106.702C94.055 106.613 94.3212 106.426 94.5078 106.17C94.5531 106.078 94.5663 105.974 94.5453 105.873C94.5243 105.773 94.4702 105.683 94.3918 105.617C94.2145 105.515 94.0134 105.461 93.8087 105.461C93.604 105.461 93.4029 105.515 93.2256 105.617C92.8342 105.765 92.5128 106.055 92.3254 106.429C92.2912 106.515 92.2823 106.61 92.2997 106.701C92.3171 106.792 92.3601 106.877 92.4237 106.945C92.4873 107.013 92.5689 107.061 92.6589 107.085C92.749 107.108 92.8438 107.105 92.9323 107.077Z" fill="#263238"/>
<path d="M99.827 107.367C99.5288 107.335 99.2328 107.284 98.9404 107.217C98.6213 107.207 98.3145 107.092 98.0674 106.89C98.0066 106.809 97.9736 106.711 97.9736 106.61C97.9736 106.509 98.0066 106.411 98.0674 106.331C98.2077 106.182 98.386 106.074 98.583 106.018C98.7801 105.963 98.9885 105.963 99.1859 106.017C99.6034 106.06 99.9899 106.257 100.27 106.569C100.329 106.646 100.364 106.739 100.371 106.836C100.378 106.932 100.357 107.029 100.31 107.114C100.263 107.198 100.192 107.267 100.106 107.313C100.021 107.358 99.9234 107.377 99.827 107.367Z" fill="#263238"/>
<path d="M97.6503 112.531C97.7187 113.021 97.762 113.515 97.7799 114.011C96.8575 114.014 95.9398 114.143 95.0519 114.393C94.8473 114.461 94.8473 114.283 95.0519 114.147C95.7466 113.734 96.5504 113.541 97.3571 113.595C97.3571 113.465 97.1252 112.053 97.2002 112.046C97.5665 112.084 97.9265 112.169 98.2709 112.299C98.0595 110.198 97.5139 108.145 97.3298 106.052C97.3298 105.977 97.4321 105.949 97.4525 106.018C98.1115 108.198 98.548 110.44 98.7552 112.708C98.8165 112.974 97.8413 112.606 97.6503 112.531Z" fill="#263238"/>
<path d="M86.1059 110.724C87.8245 110.602 87.6063 106.401 87.6063 106.401C87.6063 106.401 90.2252 105.896 91.4596 102.309C91.4596 102.309 94.8696 104.355 97.6863 103.836C102.106 102.977 101.915 97.214 100.244 96.0614C97.8704 94.4246 93.7102 96.9003 93.7102 96.9003C93.7102 96.9003 87.354 95.2157 85.5262 99.526C84.7056 99.5932 83.941 99.9692 83.3866 100.578C82.8323 101.187 82.5294 101.983 82.539 102.806C82.3754 105.91 84.8306 110.813 86.1059 110.724Z" fill="#263238"/>
<path d="M86.9986 106.905C88.2702 106.669 89.427 106.017 90.2858 105.05C90.7472 104.527 91.0755 103.901 91.2429 103.224C91.4104 102.547 91.4119 101.84 91.2474 101.162C91.2516 101.15 91.2595 101.14 91.2698 101.132C91.2802 101.125 91.2927 101.121 91.3054 101.121C91.3182 101.121 91.3306 101.125 91.341 101.132C91.3514 101.14 91.3592 101.15 91.3634 101.162C91.5675 101.872 91.6122 102.617 91.4943 103.346C91.3764 104.075 91.0988 104.768 90.6814 105.377C90.2644 105.954 89.7041 106.412 89.0559 106.707C88.4076 107.001 87.6938 107.121 86.9849 107.055C86.944 107.021 86.9236 106.918 86.9986 106.905Z" fill="#263238"/>
<path d="M93.5378 97.0907C94.0855 96.1864 94.9437 95.5124 95.9521 95.1947C97.1782 94.8468 98.4895 94.9633 99.6349 95.5221C100.091 95.7609 100.475 96.1154 100.751 96.5499C101.026 96.9845 101.182 97.4838 101.204 97.9977C101.217 99.1902 100.82 100.351 100.078 101.285C100.078 101.285 100.017 101.285 100.037 101.285C100.629 100.403 100.932 99.3593 100.903 98.2978C100.885 97.7928 100.724 97.3032 100.439 96.8857C100.154 96.4682 99.7574 96.1397 99.2939 95.9381C97.4662 95.1538 94.8063 95.3175 93.6333 97.1793C93.5992 97.2203 93.4969 97.1521 93.5378 97.0907Z" fill="#263238"/>
<path d="M87.1143 110.567C87.1143 110.567 84.9797 107.3 83.4997 108.057C82.0198 108.814 83.5679 113.513 85.2525 114.195C85.4621 114.298 85.6903 114.357 85.9234 114.369C86.1564 114.381 86.3895 114.346 86.6086 114.265C86.8277 114.185 87.0283 114.061 87.1984 113.902C87.3685 113.742 87.5046 113.549 87.5986 113.336L87.1143 110.567Z" fill="#EB9481"/>
<path d="M83.9424 109.387C83.9424 109.387 83.9424 109.421 83.9424 109.434C84.4815 109.724 84.9538 110.124 85.3286 110.608C85.7033 111.092 85.9723 111.65 86.118 112.244C86.0526 112.122 85.9614 112.015 85.8506 111.931C85.7398 111.848 85.6122 111.789 85.4765 111.76C85.3408 111.731 85.2004 111.732 85.065 111.762C84.9296 111.793 84.8025 111.853 84.6926 111.937C84.6926 111.937 84.6926 112.006 84.6926 111.999C84.9044 111.939 85.1297 111.946 85.3374 112.019C85.545 112.092 85.7248 112.228 85.852 112.408C86.0636 112.711 86.242 113.035 86.3839 113.376C86.4385 113.486 86.6295 113.431 86.5954 113.308C86.6908 111.76 85.5724 109.591 83.9424 109.387Z" fill="#263238"/>
<path d="M22.7809 320.759H0.5V316.667H22.7809C40.4311 316.667 45.4643 301.561 46.5759 288.889C47.4489 278.966 47.9808 266.881 48.5469 254.107C50.6679 206.245 52.864 156.752 72.1236 156.752H89.7738V160.844H72.11C56.765 160.844 54.378 214.852 52.6253 254.278C52.0524 267.12 51.5136 279.246 50.6406 289.265C48.8674 309.568 38.9716 320.759 22.7809 320.759Z" fill="#3D9963"/>
<path opacity="0.2" d="M89.7746 156.73V160.822H75.6982L74.8252 156.73H89.7746Z" fill="black"/>
<path d="M151.004 185.213H158.52V132.713H151.004V185.213Z" fill="#3D9963"/>
<path d="M151.005 135.201H122.442V182.177H151.005V135.201Z" fill="#3D9963"/>
<path opacity="0.2" d="M151.004 135.201V182.177H143.912L140.727 135.201H151.004Z" fill="black"/>
<path d="M79.1745 162.959H100.364V154.591H79.1745V162.959Z" fill="#3D9963"/>
<path d="M100.365 154.596H79.1748V162.964H100.365V154.596Z" fill="#3D9963"/>
<path opacity="0.2" d="M92.9238 162.957L93.6195 154.596H100.364V162.957H92.9238Z" fill="black"/>
<path d="M122.442 179.395H104.56C103.448 179.395 102.381 178.953 101.595 178.166C100.808 177.379 100.366 176.313 100.366 175.2V142.71C100.366 141.597 100.808 140.531 101.595 139.744C102.381 138.957 103.448 138.515 104.56 138.515H122.442V179.395Z" fill="#3D9963"/>
<path opacity="0.2" d="M113.043 179.396L116.228 138.523H122.441V179.396H113.043Z" fill="black"/>
<g opacity="0.2">
<path d="M114.687 171.131H116.099V146.783H114.687V171.131Z" fill="black"/>
<path d="M110.698 171.131H112.109V146.783H110.698V171.131Z" fill="black"/>
<path d="M106.702 171.131H108.113V146.783H106.702V171.131Z" fill="black"/>
</g>
<path d="M77.872 130.365C77.19 140.213 76.4126 160.27 80.7637 166.156C86.472 173.876 102.588 178.562 107.362 179.967C109.408 180.574 114.311 167.009 113.097 165.058C111.883 163.107 95.2494 158.92 93.9399 157.774C92.6305 156.628 88.484 140.642 86.513 132.499C83.9623 122.228 78.1516 126.477 77.872 130.365Z" fill="#EB9481"/>
<path d="M125.387 170.269C128.013 170.896 131.996 169.546 132.126 171.558C132.241 173.345 129.398 174.006 129.398 174.006C129.398 174.006 132.848 174.3 132.426 176.257C132.003 178.214 128.729 178.303 128.729 178.303C128.729 178.303 131.894 178.733 131.328 180.656C130.762 182.579 127.727 182.845 127.727 182.845C127.727 182.845 128.525 183.438 127.515 184.618C126.076 186.31 121.275 186.112 118.799 185.416C116.324 184.721 107.751 180.328 106.448 179.626L110.793 163.667C110.793 163.667 115.778 162.876 118.356 162.781C120.934 162.685 129.507 164.731 129.145 166.873C128.784 169.014 122.748 167.486 121.186 167.432C119.624 167.377 119.352 167.725 120.034 168.298C120.477 168.7 124.221 169.989 125.387 170.269Z" fill="#EB9481"/>
<path d="M129.241 173.972C125.21 174.654 123.328 174.204 119.632 172.608C119.557 172.574 119.495 172.677 119.57 172.718C123.048 174.593 125.333 175.446 129.282 174.157C129.48 174.102 129.439 173.945 129.241 173.972Z" fill="#263238"/>
<path d="M128.886 178.235C124.638 178.542 122.598 178.112 118.602 176.734C118.547 176.734 118.506 176.809 118.561 176.837C122.373 178.508 124.665 179.319 128.873 178.453C129.064 178.419 129.084 178.221 128.886 178.235Z" fill="#263238"/>
<path d="M127.673 182.819C123.533 182.819 121.275 182.437 117.565 180.609C117.548 180.601 117.529 180.599 117.51 180.605C117.492 180.61 117.477 180.622 117.467 180.639C117.458 180.655 117.455 180.675 117.459 180.694C117.463 180.712 117.475 180.728 117.49 180.739C121.091 182.976 123.908 183.467 127.659 182.949C127.911 182.908 127.932 182.819 127.673 182.819Z" fill="#263238"/>
<path d="M94.78 176.769C94.78 176.769 81.7742 170.236 79.776 165.23C77.3208 158.983 76.3182 140.766 77.273 131.423C78.2278 122.08 84.7341 123.239 86.821 131.498C88.867 139.559 93.4842 155.661 93.9616 156.418C94.5685 157.394 101.989 159.228 101.989 159.228" fill="#455A64"/>
<path d="M93.4771 154.33C93.2521 153.56 92.8565 151.821 92.6314 151.07C92.1745 149.57 91.7176 148.063 91.2674 146.562C90.8173 145.062 90.3331 143.555 89.8352 142.061C89.7466 141.809 89.6647 141.55 89.5829 141.297C89.6238 141.134 89.4397 139.156 89.4533 138.672C89.4533 138.597 89.3306 138.59 89.3374 138.672C89.3555 139.156 89.3396 139.642 89.2896 140.124C89.2896 140.213 89.2896 140.308 89.2896 140.397C88.9759 139.415 88.6622 138.44 88.3417 137.485C88.3417 137.417 88.2053 137.444 88.2257 137.485C88.8395 139.531 89.1396 140.82 89.5897 142.477C90.0398 144.134 90.5036 145.676 90.9537 147.251C91.4038 148.827 91.929 150.429 92.4268 152.025C92.7069 152.971 93.0347 153.902 93.4089 154.815C93.6954 155.428 93.709 155.142 93.4771 154.33Z" fill="#263238"/>
<path d="M78.8061 159.835C78.5401 158.151 78.2741 156.425 78.0695 154.761C77.6535 151.351 77.3875 147.996 77.2375 144.586C77.1488 142.635 77.0056 140.698 76.8965 138.755C76.8965 138.735 76.8886 138.716 76.8745 138.702C76.8605 138.688 76.8414 138.68 76.8215 138.68C76.8016 138.68 76.7825 138.688 76.7684 138.702C76.7544 138.716 76.7465 138.735 76.7465 138.755C76.7465 140.487 76.6851 142.212 76.7465 143.945C76.7465 144.197 76.7465 144.449 76.7465 144.702L76.6646 144.347C76.4123 143.358 76.0576 142.39 75.8394 141.387C75.8334 141.376 75.8235 141.367 75.8115 141.362C75.7994 141.357 75.786 141.356 75.7736 141.36C75.7613 141.365 75.7508 141.373 75.7441 141.384C75.7374 141.395 75.7349 141.408 75.7371 141.421C75.9826 142.417 76.1122 143.467 76.3441 144.443C76.4668 144.94 76.5896 145.438 76.726 145.936L76.7942 146.148C76.8351 147.143 76.8829 148.139 76.9511 149.135C77.136 152.552 77.53 155.955 78.1309 159.324C78.543 161.527 79.1384 163.692 79.9109 165.796C79.9148 165.806 79.9218 165.815 79.9309 165.822C79.9401 165.828 79.9509 165.832 79.9621 165.832C79.9732 165.832 79.9841 165.828 79.9932 165.822C80.0024 165.815 80.0094 165.806 80.0132 165.796C79.6109 164.111 79.0789 161.52 78.8061 159.835Z" fill="#263238"/>
<path d="M99.5736 159.22C98.8614 160.445 98.2237 161.711 97.664 163.012C97.0639 164.294 96.4569 165.577 95.8908 166.872C94.7431 169.424 93.739 172.038 92.8832 174.702C92.8816 174.717 92.8849 174.732 92.8927 174.745C92.9005 174.757 92.9123 174.767 92.9263 174.773C92.9403 174.778 92.9557 174.779 92.9701 174.775C92.9845 174.77 92.9971 174.762 93.006 174.749C94.2745 172.226 95.3589 169.6 96.4637 167.002C97.0093 165.72 97.5345 164.424 98.0732 163.142C98.612 161.86 99.2258 160.571 99.6418 159.248C99.6555 159.207 99.5941 159.186 99.5736 159.22Z" fill="#263238"/>
<path d="M146.448 68.8284C146.448 69.2903 146.356 69.7477 146.177 70.1738C145.999 70.5998 145.737 70.986 145.408 71.3098C145.078 71.6336 144.687 71.8885 144.258 72.0596C143.829 72.2308 143.37 72.3147 142.908 72.3066H142.281V77.0806C142.281 78.003 141.914 78.8877 141.262 79.54C140.61 80.1923 139.725 80.5588 138.803 80.5588C137.88 80.5588 136.996 80.1923 136.343 79.54C135.691 78.8877 135.324 78.003 135.324 77.0806V72.3066H115.39C114.602 72.3352 113.834 72.0619 113.241 71.5427C112.874 71.2685 112.567 70.9222 112.338 70.5251C112.11 70.128 111.964 69.6884 111.911 69.2333C111.858 68.7781 111.899 68.3169 112.03 67.8779C112.161 67.4389 112.381 67.0313 112.675 66.6801L136.061 37.6064C136.122 37.6064 136.122 37.5382 136.184 37.4768C136.264 37.4062 136.328 37.3204 136.375 37.2245C136.497 37.1952 136.606 37.1284 136.688 37.0335C136.757 36.9722 136.879 36.9108 136.941 36.8426C137.053 36.7643 137.186 36.7215 137.323 36.7198C137.384 36.5902 137.445 36.5289 137.575 36.5289C137.705 36.5289 137.766 36.4675 137.957 36.4061C138.047 36.415 138.136 36.3907 138.209 36.3379H139.28C139.377 36.3929 139.489 36.4167 139.601 36.4061C139.662 36.4675 139.853 36.4675 139.976 36.5289C140.098 36.5902 140.167 36.5902 140.228 36.5902C140.33 36.6806 140.437 36.7648 140.549 36.8426C140.671 36.9108 140.733 36.9722 140.862 37.0335C140.871 37.0335 140.88 37.0353 140.887 37.0388C140.895 37.0423 140.903 37.0474 140.908 37.0538C140.914 37.0603 140.918 37.0679 140.921 37.0761C140.924 37.0844 140.925 37.0931 140.924 37.1017C140.985 37.1017 141.115 37.1631 141.115 37.2245L141.367 37.4768C141.428 37.5382 141.497 37.6678 141.558 37.7292C141.653 37.8269 141.738 37.9343 141.81 38.0497C141.826 38.1452 141.872 38.2333 141.94 38.3021C141.991 38.4235 142.032 38.549 142.063 38.6772C142.063 38.7385 142.124 38.8681 142.124 38.9295C142.183 39.0475 142.207 39.1802 142.192 39.3114C142.192 39.4342 142.254 39.5024 142.254 39.6251V65.3502H142.881C143.344 65.3439 143.803 65.4289 144.233 65.6003C144.663 65.7718 145.055 66.0264 145.386 66.3495C145.717 66.6725 145.982 67.0578 146.164 67.4831C146.346 67.9085 146.443 68.3656 146.448 68.8284ZM135.324 49.7324L122.721 65.3502H135.297L135.324 49.7324Z" fill="#EBEBEB"/>
<path d="M154.762 58.462C154.823 52.6445 156.276 47.3999 159.058 43.3557C161.711 39.3114 165.824 36.3379 170.816 36.3379C175.679 36.3379 179.852 39.3114 182.505 43.3557C185.158 47.3999 186.741 52.6445 186.741 58.462C186.741 64.2794 185.227 69.524 182.505 73.5683C179.784 77.6125 175.685 80.5861 170.816 80.5861C165.824 80.5861 161.711 77.5512 159.058 73.5683C156.276 69.524 154.823 64.2112 154.762 58.462ZM179.723 58.462C179.794 54.5006 178.744 50.5998 176.695 47.209C174.86 44.556 172.773 43.2943 170.816 43.3557C168.852 43.2943 166.724 44.556 164.808 47.209C162.756 50.599 161.704 54.4999 161.773 58.462C161.702 62.4027 162.755 66.2822 164.808 69.6468C166.704 72.3748 168.852 73.5683 170.816 73.5683C172.78 73.5683 174.86 72.368 176.695 69.6468C178.529 66.9256 179.723 62.9495 179.723 58.462Z" fill="#EBEBEB"/>
<path d="M225.334 68.8284C225.333 69.2907 225.24 69.7482 225.061 70.1743C224.881 70.6003 224.619 70.9865 224.289 71.3102C223.959 71.6339 223.568 71.8887 223.138 72.0597C222.709 72.2308 222.249 72.3147 221.787 72.3066H221.16V77.0806C221.16 78.003 220.793 78.8877 220.141 79.54C219.489 80.1923 218.604 80.5588 217.682 80.5588C216.759 80.5588 215.874 80.1923 215.222 79.54C214.57 78.8877 214.203 78.003 214.203 77.0806V72.3066H194.296C193.506 72.3369 192.735 72.0636 192.141 71.5427C191.774 71.2685 191.466 70.9222 191.238 70.5251C191.009 70.128 190.864 69.6884 190.811 69.2333C190.758 68.7781 190.798 68.3169 190.929 67.8779C191.061 67.4389 191.28 67.0313 191.575 66.6801L214.96 37.6064C215.022 37.6064 215.022 37.5382 215.083 37.4768C215.163 37.4062 215.228 37.3204 215.274 37.2245C215.396 37.1952 215.506 37.1284 215.588 37.0335C215.656 36.9722 215.779 36.9108 215.84 36.8426C215.952 36.7643 216.085 36.7215 216.222 36.7198C216.284 36.5902 216.345 36.5289 216.474 36.5289C216.604 36.5289 216.665 36.4675 216.856 36.4061C216.946 36.415 217.036 36.3907 217.109 36.3379H218.179C218.277 36.3929 218.389 36.4167 218.5 36.4061C218.561 36.4675 218.752 36.4675 218.875 36.5289C218.998 36.5902 219.066 36.5902 219.127 36.5902C219.257 36.7198 219.38 36.7812 219.441 36.8426C219.503 36.904 219.632 36.9722 219.762 37.0335C219.77 37.0335 219.779 37.0353 219.787 37.0388C219.795 37.0423 219.802 37.0474 219.808 37.0538C219.814 37.0603 219.818 37.0679 219.821 37.0761C219.823 37.0844 219.824 37.0931 219.823 37.1017C219.884 37.1017 220.014 37.1631 220.014 37.2245L220.266 37.4768C220.328 37.5382 220.396 37.6678 220.457 37.7292C220.552 37.8269 220.637 37.9343 220.71 38.0497C220.726 38.1452 220.771 38.2333 220.839 38.3021C220.89 38.4235 220.931 38.549 220.962 38.6772C220.962 38.7385 221.023 38.8681 221.023 38.9295C221.08 39.0482 221.102 39.1808 221.085 39.3114C221.085 39.4342 221.153 39.5024 221.153 39.6251V65.3502H221.78C222.712 65.3429 223.609 65.7046 224.275 66.3563C224.94 67.008 225.321 67.8968 225.334 68.8284ZM214.203 49.7324L201.627 65.3502H214.203V49.7324Z" fill="#EBEBEB"/>
<path d="M171.11 123.928C171.019 123.928 170.932 123.892 170.868 123.828C170.804 123.764 170.769 123.678 170.769 123.587V113.991C170.769 113.901 170.804 113.814 170.868 113.75C170.932 113.686 171.019 113.65 171.11 113.65C171.2 113.65 171.287 113.686 171.351 113.75C171.415 113.814 171.451 113.901 171.451 113.991V123.587C171.451 123.678 171.415 123.764 171.351 123.828C171.287 123.892 171.2 123.928 171.11 123.928Z" fill="#263238"/>
<path d="M153.746 128.524C153.685 128.524 153.626 128.508 153.573 128.478C153.52 128.448 153.477 128.405 153.446 128.353L148.672 120.04C148.644 120.001 148.624 119.957 148.614 119.91C148.604 119.864 148.604 119.815 148.614 119.769C148.624 119.722 148.643 119.678 148.671 119.639C148.699 119.601 148.735 119.568 148.776 119.544C148.817 119.52 148.863 119.505 148.911 119.5C148.958 119.495 149.006 119.5 149.051 119.514C149.097 119.529 149.139 119.553 149.174 119.585C149.21 119.616 149.239 119.655 149.258 119.699L154.032 128.012C154.055 128.051 154.07 128.093 154.077 128.137C154.083 128.182 154.08 128.227 154.069 128.27C154.057 128.313 154.037 128.354 154.01 128.389C153.983 128.425 153.948 128.454 153.909 128.476C153.86 128.506 153.804 128.523 153.746 128.524Z" fill="#263238"/>
<path d="M148.754 196.943C148.694 196.943 148.635 196.927 148.583 196.895C148.545 196.871 148.512 196.838 148.487 196.801C148.462 196.763 148.445 196.72 148.436 196.676C148.428 196.631 148.429 196.585 148.439 196.541C148.449 196.496 148.468 196.455 148.495 196.418L153.269 188.111C153.291 188.072 153.321 188.038 153.357 188.011C153.392 187.983 153.433 187.963 153.476 187.951C153.52 187.94 153.565 187.937 153.609 187.942C153.654 187.948 153.697 187.963 153.736 187.985C153.775 188.007 153.809 188.037 153.836 188.073C153.864 188.108 153.884 188.149 153.896 188.192C153.907 188.236 153.911 188.281 153.905 188.326C153.899 188.37 153.884 188.413 153.862 188.452L149.088 196.759C149.057 196.819 149.009 196.869 148.949 196.902C148.89 196.935 148.822 196.949 148.754 196.943Z" fill="#263238"/>
<path d="M170.891 202.93C170.8 202.93 170.714 202.894 170.65 202.83C170.586 202.766 170.55 202.68 170.55 202.589V193.007C170.55 192.917 170.586 192.83 170.65 192.766C170.714 192.702 170.8 192.666 170.891 192.666C170.981 192.668 171.066 192.704 171.13 192.768C171.194 192.831 171.23 192.917 171.232 193.007V202.603C171.228 202.691 171.191 202.774 171.127 202.835C171.064 202.896 170.979 202.93 170.891 202.93Z" fill="#263238"/>
<path d="M193.057 197.052C192.998 197.052 192.939 197.036 192.888 197.006C192.836 196.976 192.794 196.933 192.764 196.882L187.99 188.575C187.967 188.536 187.953 188.493 187.947 188.449C187.941 188.404 187.944 188.359 187.956 188.315C187.968 188.272 187.988 188.231 188.015 188.196C188.043 188.16 188.077 188.13 188.116 188.108C188.155 188.086 188.198 188.071 188.243 188.065C188.287 188.06 188.332 188.063 188.376 188.074C188.419 188.086 188.46 188.106 188.495 188.134C188.531 188.161 188.561 188.195 188.583 188.234L193.357 196.541C193.38 196.579 193.395 196.622 193.402 196.666C193.408 196.71 193.405 196.756 193.394 196.799C193.382 196.842 193.362 196.883 193.335 196.918C193.308 196.953 193.273 196.983 193.234 197.005C193.181 197.038 193.12 197.054 193.057 197.052Z" fill="#263238"/>
<path d="M188.447 128.633C188.386 128.634 188.327 128.617 188.276 128.586C188.237 128.564 188.203 128.534 188.175 128.499C188.148 128.464 188.128 128.423 188.117 128.38C188.105 128.337 188.102 128.291 188.109 128.247C188.115 128.203 188.13 128.16 188.153 128.122L192.927 119.808C192.977 119.74 193.05 119.693 193.133 119.675C193.215 119.658 193.302 119.672 193.375 119.714C193.447 119.757 193.502 119.825 193.528 119.905C193.554 119.985 193.549 120.072 193.514 120.149L188.74 128.463C188.709 128.514 188.666 128.556 188.615 128.586C188.564 128.615 188.506 128.632 188.447 128.633Z" fill="#263238"/>
</g>
<defs>
<clipPath id="clip0_551_11143">
<rect width="341" height="341" fill="white" transform="translate(0.5)"/>
</clipPath>
</defs>
</svg>
