<svg width="1248" height="448" viewBox="0 0 1248 448" fill="none" xmlns="http://www.w3.org/2000/svg">
<g opacity="0.8">
<circle cx="1.5" cy="173.5" r="1.5" fill="#BEECD1"/>
<circle cx="114.5" cy="95.5" r="1.5" fill="#BEECD1"/>
<circle cx="200.5" cy="164.5" r="1.5" fill="#BEECD1"/>
<circle cx="50.5" cy="122.5" r="1.5" fill="#BEECD1"/>
<circle cx="162.5" cy="239.5" r="1.5" fill="#BEECD1"/>
<circle cx="203.5" cy="98.5" r="1.5" fill="#BEECD1"/>
<circle cx="122.5" cy="151.5" r="1.5" fill="#BEECD1"/>
<circle cx="88" cy="227" r="1" fill="#BEECD1"/>
</g>
<g opacity="0.4">
<circle cx="1044.5" cy="202.5" r="1.5" fill="#BEECD1"/>
<circle cx="1157.5" cy="124.5" r="1.5" fill="#BEECD1"/>
<circle cx="1243.5" cy="193.5" r="1.5" fill="#BEECD1"/>
<circle cx="1093.5" cy="151.5" r="1.5" fill="#BEECD1"/>
<circle cx="1205.5" cy="268.5" r="1.5" fill="#BEECD1"/>
<circle cx="1246.5" cy="127.5" r="1.5" fill="#BEECD1"/>
<circle cx="1165.5" cy="180.5" r="1.5" fill="#BEECD1"/>
<circle cx="1131" cy="256" r="1" fill="#BEECD1"/>
</g>
<g opacity="0.6">
<circle cx="854.5" cy="146.5" r="1.5" fill="#BEECD1"/>
<circle cx="967.5" cy="68.5" r="1.5" fill="#BEECD1"/>
<circle cx="1053.5" cy="137.5" r="1.5" fill="#BEECD1"/>
<circle cx="903.5" cy="95.5" r="1.5" fill="#BEECD1"/>
<circle cx="1015.5" cy="212.5" r="1.5" fill="#BEECD1"/>
<circle cx="1056.5" cy="71.5" r="1.5" fill="#BEECD1"/>
<circle cx="975.5" cy="124.5" r="1.5" fill="#BEECD1"/>
<circle cx="941" cy="200" r="1" fill="#BEECD1"/>
</g>
<g opacity="0.6">
<circle cx="106.5" cy="380.5" r="1.5" fill="#BEECD1"/>
<circle cx="219.5" cy="302.5" r="1.5" fill="#BEECD1"/>
<circle cx="305.5" cy="371.5" r="1.5" fill="#BEECD1"/>
<circle cx="155.5" cy="329.5" r="1.5" fill="#BEECD1"/>
<circle cx="308.5" cy="305.5" r="1.5" fill="#BEECD1"/>
<circle cx="227.5" cy="358.5" r="1.5" fill="#BEECD1"/>
</g>
<g opacity="0.5">
<circle cx="292.5" cy="79.5" r="1.5" fill="#BEECD1"/>
<circle cx="491.5" cy="70.5" r="1.5" fill="#BEECD1"/>
<circle cx="341.5" cy="28.5" r="1.5" fill="#BEECD1"/>
<circle cx="453.5" cy="145.5" r="1.5" fill="#BEECD1"/>
<circle cx="413.5" cy="57.5" r="1.5" fill="#BEECD1"/>
<circle cx="379" cy="133" r="1" fill="#BEECD1"/>
</g>
<g opacity="0.7">
<circle cx="1.5" cy="1.5" r="1.5" transform="matrix(1 0 0 -1 601 109)" fill="#BEECD1"/>
<circle cx="1.5" cy="1.5" r="1.5" transform="matrix(1 0 0 -1 714 187)" fill="#BEECD1"/>
<circle cx="1.5" cy="1.5" r="1.5" transform="matrix(1 0 0 -1 800 118)" fill="#BEECD1"/>
<circle cx="1.5" cy="1.5" r="1.5" transform="matrix(1 0 0 -1 650 160)" fill="#BEECD1"/>
<circle cx="1.5" cy="1.5" r="1.5" transform="matrix(1 0 0 -1 762 43)" fill="#BEECD1"/>
<circle cx="1.5" cy="1.5" r="1.5" transform="matrix(1 0 0 -1 803 184)" fill="#BEECD1"/>
<circle cx="1.5" cy="1.5" r="1.5" transform="matrix(1 0 0 -1 722 131)" fill="#BEECD1"/>
<circle cx="1" cy="1" r="1" transform="matrix(1 0 0 -1 688 55)" fill="#BEECD1"/>
</g>
<g opacity="0.6">
<circle cx="921.5" cy="377.5" r="1.5" fill="#BEECD1"/>
<circle cx="1034.5" cy="299.5" r="1.5" fill="#BEECD1"/>
<circle cx="1120.5" cy="368.5" r="1.5" fill="#BEECD1"/>
<circle cx="970.5" cy="326.5" r="1.5" fill="#BEECD1"/>
<circle cx="1082.5" cy="443.5" r="1.5" fill="#BEECD1"/>
<circle cx="1123.5" cy="302.5" r="1.5" fill="#BEECD1"/>
<circle cx="1042.5" cy="355.5" r="1.5" fill="#BEECD1"/>
<circle cx="1008" cy="431" r="1" fill="#BEECD1"/>
</g>
</svg>
