<svg width="16" height="16" viewBox="0 0 16 16" fill="none" xmlns="http://www.w3.org/2000/svg">
<path d="M14.4478 9.53398L14.1811 12.8673C14.0811 13.8873 14.0011 14.6673 12.1945 14.6673H3.80781C2.00115 14.6673 1.92115 13.8873 1.82115 12.8673L1.55448 9.53398C1.50115 8.98065 1.67448 8.46732 1.98781 8.07398C1.99448 8.06732 1.99448 8.06732 2.00115 8.06065C2.36781 7.61398 2.92115 7.33398 3.54115 7.33398H12.4611C13.0811 7.33398 13.6278 7.61398 13.9878 8.04732C13.9945 8.05398 14.0011 8.06065 14.0011 8.06732C14.3278 8.46065 14.5078 8.97398 14.4478 9.53398Z" stroke="#ECECEC" stroke-miterlimit="10"/>
<path d="M2.33398 7.62018V4.18685C2.33398 1.92018 2.90065 1.35352 5.16732 1.35352H6.01398C6.86065 1.35352 7.05398 1.60685 7.37398 2.03352L8.22065 3.16685C8.43398 3.44685 8.56065 3.62018 9.12732 3.62018H10.8273C13.094 3.62018 13.6607 4.18685 13.6607 6.45352V7.64685" stroke="#ECECEC" stroke-miterlimit="10" stroke-linecap="round" stroke-linejoin="round"/>
<path d="M6.28711 11.334H9.71378" stroke="#ECECEC" stroke-miterlimit="10" stroke-linecap="round" stroke-linejoin="round"/>
</svg>
