<svg width="22" height="22" viewBox="0 0 22 22" fill="none" xmlns="http://www.w3.org/2000/svg">
<path d="M20.68 11.2291C20.68 10.5141 20.6158 9.82663 20.4967 9.16663H11V13.067H16.4267C16.1929 14.3275 15.4825 15.3954 14.4146 16.1104V18.6404H17.6733C19.58 16.885 20.68 14.3 20.68 11.2291Z" fill="#4285F4"/>
<path d="M10.9991 21.0833C13.7216 21.0833 16.0041 20.1804 17.6724 18.6404L14.4137 16.1104C13.5108 16.7154 12.3558 17.0729 10.9991 17.0729C8.37286 17.0729 6.14995 15.2991 5.35703 12.9158H1.98828V15.5283C3.64745 18.8237 7.05745 21.0833 10.9991 21.0833Z" fill="#34A853"/>
<path d="M5.35727 12.9158C5.1556 12.3108 5.04102 11.6646 5.04102 11C5.04102 10.3354 5.1556 9.68918 5.35727 9.08418V6.47168H1.98852C1.28268 7.8768 0.915394 9.42757 0.916016 11C0.916016 12.6271 1.3056 14.1671 1.98852 15.5283L5.35727 12.9158Z" fill="#FBBC05"/>
<path d="M10.9991 4.92704C12.4795 4.92704 13.8087 5.43579 14.8537 6.43496L17.7458 3.54288C15.9995 1.91579 13.717 0.916626 10.9991 0.916626C7.05745 0.916626 3.64745 3.17621 1.98828 6.47163L5.35703 9.08413C6.14995 6.70079 8.37286 4.92704 10.9991 4.92704Z" fill="#EA4335"/>
</svg>
