<svg width="49" height="48" viewBox="0 0 49 48" fill="none" xmlns="http://www.w3.org/2000/svg">
<path d="M24.5 38C31.12 38 36.5 32.62 36.5 26V16C36.5 9.38 31.12 4 24.5 4C17.88 4 12.5 9.38 12.5 16V26C12.5 32.62 17.88 38 24.5 38Z" stroke="#4285F4" stroke-width="3" stroke-linecap="round" stroke-linejoin="round"/>
<path d="M6.5 22V26C6.5 35.94 14.56 44 24.5 44C34.44 44 42.5 35.94 42.5 26V22" stroke="#4285F4" stroke-width="3" stroke-linecap="round" stroke-linejoin="round"/>
<path d="M18.7188 14.9594C22.2787 13.6594 26.1588 13.6594 29.7188 14.9594" stroke="#4285F4" stroke-width="3" stroke-linecap="round" stroke-linejoin="round"/>
<path d="M20.5586 20.9598C22.9586 20.2998 25.4986 20.2998 27.8986 20.9598" stroke="#4285F4" stroke-width="3" stroke-linecap="round" stroke-linejoin="round"/>
</svg>
