<svg width="32" height="32" viewBox="0 0 32 32" fill="none" xmlns="http://www.w3.org/2000/svg">
<path d="M15.9603 29.3327C23.3241 29.3327 29.2936 23.3631 29.2936 15.9993C29.2936 8.63555 23.3241 2.66602 15.9603 2.66602C8.59649 2.66602 2.62695 8.63555 2.62695 15.9993C2.62695 23.3631 8.59649 29.3327 15.9603 29.3327Z" stroke="#888888" stroke-width="2" stroke-linecap="round" stroke-linejoin="round"/>
<path d="M14.2927 19.3744V12.6277C14.2927 11.9877 14.026 11.7344 13.346 11.7344H11.6127C10.9327 11.7344 10.666 11.9877 10.666 12.6277V19.3744C10.666 20.0144 10.9327 20.2677 11.6127 20.2677H13.3327C14.026 20.2677 14.2927 20.0144 14.2927 19.3744Z" stroke="#888888" stroke-width="2" stroke-linecap="round" stroke-linejoin="round"/>
<path d="M21.3321 19.3744V12.6277C21.3321 11.9877 21.0654 11.7344 20.3854 11.7344H18.6654C17.9854 11.7344 17.7188 11.9877 17.7188 12.6277V19.3744C17.7188 20.0144 17.9854 20.2677 18.6654 20.2677H20.3854C21.0654 20.2677 21.3321 20.0144 21.3321 19.3744Z" stroke="#888888" stroke-width="2" stroke-linecap="round" stroke-linejoin="round"/>
</svg>
