<svg width="24" height="24" viewBox="0 0 24 24" fill="none" xmlns="http://www.w3.org/2000/svg">
<path d="M17.5185 1.87441C17.8084 1.58449 18.1526 1.35452 18.5314 1.19762C18.9102 1.04072 19.3162 0.959961 19.7262 0.959961C20.1362 0.959961 20.5422 1.04072 20.921 1.19762C21.2998 1.35452 21.644 1.58449 21.9339 1.87441C22.2238 2.16433 22.4538 2.50851 22.6107 2.8873C22.7676 3.2661 22.8483 3.67209 22.8483 4.08209C22.8483 4.49209 22.7676 4.89808 22.6107 5.27688C22.4538 5.65567 22.2238 5.99985 21.9339 6.28977L7.03205 21.1916L0.960938 22.8474L2.6167 16.7762L17.5185 1.87441Z" stroke="#FFFF00" stroke-width="1.2" stroke-linecap="round" stroke-linejoin="round"/>
</svg>
