<svg width="17" height="18" viewBox="0 0 17 18" fill="none" xmlns="http://www.w3.org/2000/svg">
<path d="M6.41789 15.9685H10.6249C14.1307 15.9685 15.533 14.5662 15.533 11.0604V6.85344C15.533 3.34763 14.1307 1.94531 10.6249 1.94531H6.41789C2.91209 1.94531 1.50977 3.34763 1.50977 6.85344V11.0604C1.50977 14.5662 2.91209 15.9685 6.41789 15.9685Z" stroke="#ECECEC" stroke-width="1.05174" stroke-linecap="round" stroke-linejoin="round"/>
<path d="M12.0272 2.25391V9.25149C12.0272 10.6328 11.0386 11.1727 9.82559 10.4435L8.90006 9.88955C8.68971 9.76334 8.35315 9.76334 8.1428 9.88955L7.21727 10.4435C6.00426 11.1657 5.01562 10.6328 5.01562 9.25149V2.25391" stroke="#ECECEC" stroke-width="1.05174" stroke-linecap="round" stroke-linejoin="round"/>
<path d="M6.41789 15.9685H10.6249C14.1307 15.9685 15.533 14.5662 15.533 11.0604V6.85344C15.533 3.34763 14.1307 1.94531 10.6249 1.94531H6.41789C2.91209 1.94531 1.50977 3.34763 1.50977 6.85344V11.0604C1.50977 14.5662 2.91209 15.9685 6.41789 15.9685Z" stroke="#ECECEC" stroke-width="1.05174" stroke-linecap="round" stroke-linejoin="round"/>
<path d="M12.0272 2.25391V9.25149C12.0272 10.6328 11.0386 11.1727 9.82559 10.4435L8.90006 9.88955C8.68971 9.76334 8.35315 9.76334 8.1428 9.88955L7.21727 10.4435C6.00426 11.1657 5.01562 10.6328 5.01562 9.25149V2.25391" stroke="#ECECEC" stroke-width="1.05174" stroke-linecap="round" stroke-linejoin="round"/>
</svg>
