<svg width="1440" height="1044" viewBox="0 0 1440 1044" fill="none" xmlns="http://www.w3.org/2000/svg">
<g filter="url(#filter0_f_885_8384)">
<path d="M475.578 643.5C475.578 611.523 481.876 579.859 494.113 550.317C506.35 520.774 524.287 493.931 546.898 471.319C569.509 448.708 596.352 430.772 625.895 418.535C655.438 406.298 687.101 400 719.078 400C751.055 400 782.719 406.298 812.262 418.535C841.804 430.772 868.648 448.708 891.259 471.32C913.87 493.931 931.806 520.774 944.043 550.317C956.28 579.859 962.578 611.523 962.578 643.5L719.078 643.5H475.578Z" fill="#3D9963"/>
</g>
<g filter="url(#filter1_f_885_8384)">
<path d="M720.081 467L1466.16 484.5H-26L720.081 467Z" fill="url(#paint0_linear_885_8384)" fill-opacity="0.9"/>
</g>
<defs>
<filter id="filter0_f_885_8384" x="75.5781" y="0" width="1287" height="1043.5" filterUnits="userSpaceOnUse" color-interpolation-filters="sRGB">
<feFlood flood-opacity="0" result="BackgroundImageFix"/>
<feBlend mode="normal" in="SourceGraphic" in2="BackgroundImageFix" result="shape"/>
<feGaussianBlur stdDeviation="200" result="effect1_foregroundBlur_885_8384"/>
</filter>
<filter id="filter1_f_885_8384" x="-30" y="463" width="1500.16" height="25.5" filterUnits="userSpaceOnUse" color-interpolation-filters="sRGB">
<feFlood flood-opacity="0" result="BackgroundImageFix"/>
<feBlend mode="normal" in="SourceGraphic" in2="BackgroundImageFix" result="shape"/>
<feGaussianBlur stdDeviation="2" result="effect1_foregroundBlur_885_8384"/>
</filter>
<linearGradient id="paint0_linear_885_8384" x1="-141.42" y1="479" x2="1581.58" y2="479" gradientUnits="userSpaceOnUse">
<stop stop-color="#112017"/>
<stop offset="0.22" stop-color="#3CA769"/>
<stop offset="0.34" stop-color="#B8FFD6"/>
<stop offset="0.5" stop-color="#D9FFE9"/>
<stop offset="0.695" stop-color="#B8FFD6"/>
<stop offset="0.78365" stop-color="#3CA769"/>
<stop offset="1" stop-color="#112017"/>
</linearGradient>
</defs>
</svg>
