<svg width="25" height="24" viewBox="0 0 25 24" fill="none" xmlns="http://www.w3.org/2000/svg">
<path d="M8.5008 22H16.5008C20.5208 22 21.2408 20.39 21.4508 18.43L22.2008 10.43C22.4708 7.99 21.7708 6 17.5008 6H7.5008C3.2308 6 2.5308 7.99 2.8008 10.43L3.5508 18.43C3.7608 20.39 4.4808 22 8.5008 22Z" stroke="#05E863" stroke-width="1.5" stroke-miterlimit="10" stroke-linecap="round" stroke-linejoin="round"/>
<path d="M8.5 6V5.2C8.5 3.43 8.5 2 11.7 2H13.3C16.5 2 16.5 3.43 16.5 5.2V6" stroke="#05E863" stroke-width="1.5" stroke-miterlimit="10" stroke-linecap="round" stroke-linejoin="round"/>
<path d="M14.5 13V14C14.5 14.01 14.5 14.01 14.5 14.02C14.5 15.11 14.49 16 12.5 16C10.52 16 10.5 15.12 10.5 14.03V13C10.5 12 10.5 12 11.5 12H13.5C14.5 12 14.5 12 14.5 13Z" stroke="#05E863" stroke-width="1.5" stroke-miterlimit="10" stroke-linecap="round" stroke-linejoin="round"/>
<path d="M22.15 11C19.84 12.68 17.2 13.68 14.5 14.02" stroke="#05E863" stroke-width="1.5" stroke-miterlimit="10" stroke-linecap="round" stroke-linejoin="round"/>
<path d="M3.11914 11.2695C5.36914 12.8095 7.90914 13.7395 10.4991 14.0295" stroke="#05E863" stroke-width="1.5" stroke-miterlimit="10" stroke-linecap="round" stroke-linejoin="round"/>
</svg>
