<svg width="49" height="48" viewBox="0 0 49 48" fill="none" xmlns="http://www.w3.org/2000/svg">
<path d="M25.56 40.8402H12.92C6.6 40.8402 4.5 36.6402 4.5 32.4202V15.5802C4.5 9.26016 6.6 7.16016 12.92 7.16016H25.56C31.88 7.16016 33.98 9.26016 33.98 15.5802V32.4202C33.98 38.7402 31.86 40.8402 25.56 40.8402Z" stroke="#CB3C3C" stroke-width="3" stroke-linecap="round" stroke-linejoin="round"/>
<path d="M39.5405 34.2003L33.9805 30.3003V17.6803L39.5405 13.7803C42.2605 11.8803 44.5005 13.0403 44.5005 16.3803V31.6203C44.5005 34.9603 42.2605 36.1203 39.5405 34.2003Z" stroke="#CB3C3C" stroke-width="3" stroke-linecap="round" stroke-linejoin="round"/>
<path d="M23.5 22C25.1569 22 26.5 20.6569 26.5 19C26.5 17.3431 25.1569 16 23.5 16C21.8431 16 20.5 17.3431 20.5 19C20.5 20.6569 21.8431 22 23.5 22Z" stroke="#CB3C3C" stroke-width="3" stroke-linecap="round" stroke-linejoin="round"/>
</svg>
