<svg width="41" height="40" viewBox="0 0 41 40" fill="none" xmlns="http://www.w3.org/2000/svg">
<path d="M20.5 25.1562C19.7312 25.1562 19.0938 24.5188 19.0938 23.75V14.375C19.0938 13.6062 19.7312 12.9688 20.5 12.9688C21.2687 12.9688 21.9062 13.6062 21.9062 14.375V23.75C21.9062 24.5188 21.2687 25.1562 20.5 25.1562Z" fill="#FF6058"/>
<path d="M20.5 31.2527C20.3875 31.2527 20.2563 31.234 20.125 31.2152C20.0125 31.1965 19.9 31.159 19.7875 31.1027C19.675 31.0652 19.5625 31.009 19.45 30.934C19.3562 30.859 19.2625 30.784 19.1687 30.709C18.8312 30.3527 18.625 29.8652 18.625 29.3777C18.625 28.8902 18.8312 28.4027 19.1687 28.0465C19.2625 27.9715 19.3562 27.8965 19.45 27.8215C19.5625 27.7465 19.675 27.6902 19.7875 27.6527C19.9 27.5965 20.0125 27.559 20.125 27.5402C20.3688 27.484 20.6312 27.484 20.8562 27.5402C20.9875 27.559 21.1 27.5965 21.2125 27.6527C21.325 27.6902 21.4375 27.7465 21.55 27.8215C21.6438 27.8965 21.7375 27.9715 21.8313 28.0465C22.1688 28.4027 22.375 28.8902 22.375 29.3777C22.375 29.8652 22.1688 30.3527 21.8313 30.709C21.7375 30.784 21.6438 30.859 21.55 30.934C21.4375 31.009 21.325 31.0652 21.2125 31.1027C21.1 31.159 20.9875 31.1965 20.8562 31.2152C20.7437 31.234 20.6125 31.2527 20.5 31.2527Z" fill="#FF6058"/>
<path d="M31.7618 40H9.23053C5.60545 40 2.83552 38.6024 1.42267 36.0827C0.0284119 33.563 0.214313 30.315 1.98038 26.9488L13.246 5.49213C15.105 1.94882 17.6705 0 20.4962 0C23.3219 0 25.8873 1.94882 27.7463 5.49213L39.0119 26.9685C40.778 30.3346 40.9825 33.563 39.5696 36.1024C38.1568 38.6024 35.3869 40 31.7618 40ZM20.4962 2.95276C18.7487 2.95276 17.0384 4.37008 15.6813 6.92913L4.43428 28.4055C3.17015 30.8071 2.96565 33.0118 3.83939 34.6063C4.71313 36.2008 6.6465 37.0669 9.24912 37.0669H31.7804C34.383 37.0669 36.2978 36.2008 37.1901 34.6063C38.0824 33.0118 37.8593 30.8268 36.5952 28.4055L25.311 6.92913C23.9539 4.37008 22.2436 2.95276 20.4962 2.95276Z" fill="#C5C6CB"/>
</svg>
